<?xml version="1.0" standalone="no"?>
<!DOCTYPE svg PUBLIC "-//W3C//DTD SVG 1.1//EN" "http://www.w3.org/Graphics/SVG/1.1/DTD/svg11.dtd" >
<svg xmlns="http://www.w3.org/2000/svg">
<metadata>
Created by FontForge 20120731 at Tue Aug 16 11:09:57 2016
 By admin
</metadata>
<defs>
<font id="iconfont" horiz-adv-x="1024" >
  <font-face 
    font-family="iconfont"
    font-weight="500"
    font-stretch="normal"
    units-per-em="1024"
    panose-1="2 0 6 3 0 0 0 0 0 0"
    ascent="896"
    descent="-128"
    x-height="792"
    bbox="-0.1 -128.083 1317 896"
    underline-thickness="50"
    underline-position="-100"
    unicode-range="U+0078-ED04"
  />
<missing-glyph horiz-adv-x="374" 
d="M34 0v682h272v-682h-272zM68 34h204v614h-204v-614z" />
    <glyph glyph-name=".notdef" horiz-adv-x="374" 
d="M34 0v682h272v-682h-272zM68 34h204v614h-204v-614z" />
    <glyph glyph-name=".null" horiz-adv-x="0" 
 />
    <glyph glyph-name="nonmarkingreturn" horiz-adv-x="341" 
 />
    <glyph glyph-name="x" unicode="x" horiz-adv-x="1001" 
d="M281 543q-27 -1 -53 -1h-83q-18 0 -36.5 -6t-32.5 -18.5t-23 -32t-9 -45.5v-76h912v41q0 16 -0.5 30t-0.5 18q0 13 -5 29t-17 29.5t-31.5 22.5t-49.5 9h-133v-97h-438v97zM955 310v-52q0 -23 0.5 -52t0.5 -58t-10.5 -47.5t-26 -30t-33 -16t-31.5 -4.5q-14 -1 -29.5 -0.5
t-29.5 0.5h-32l-45 128h-439l-44 -128h-29h-34q-20 0 -45 1q-25 0 -41 9.5t-25.5 23t-13.5 29.5t-4 30v167h911zM163 247q-12 0 -21 -8.5t-9 -21.5t9 -21.5t21 -8.5q13 0 22 8.5t9 21.5t-9 21.5t-22 8.5zM316 123q-8 -26 -14 -48q-5 -19 -10.5 -37t-7.5 -25t-3 -15t1 -14.5
t9.5 -10.5t21.5 -4h37h67h81h80h64h36q23 0 34 12t2 38q-5 13 -9.5 30.5t-9.5 34.5q-5 19 -11 39h-368zM336 498v228q0 11 2.5 23t10 21.5t20.5 15.5t34 6h188q31 0 51.5 -14.5t20.5 -52.5v-227h-327z" />
    <glyph glyph-name="uniE9AE" unicode="&#xe9ae;" 
d="M906 202q-23 -72 -71 -143q-73 -112 -146 -112q-28 0 -80 18q-50 18 -87 18q-35 0 -81 -18q-46 -20 -75 -20q-87 0 -172 148q-84 149 -84 288q0 130 64 213t163 83q41 0 101 -18q59 -17 79 -17q25 0 81 20q59 19 99 19q68 0 122 -37q30 -20 59 -57q-45 -38 -65 -67
q-37 -54 -37 -119q0 -71 39.5 -127.5t90.5 -71.5zM691 872q0 -35 -17 -78t-53 -79q-31 -30 -62 -41q-21 -6 -59 -9q2 85 44 146q43 62 143 85q1 -2 2 -6.5t1 -6.5t0.5 -5.5t0.5 -5.5z" />
    <glyph glyph-name="uniE9B2" unicode="&#xe9b2;" horiz-adv-x="1025" 
d="M1024 128v-73q0 -15 -11 -26t-26 -11h-950q-15 0 -26 11t-11 26v73q0 15 11 26t26 11h950q15 0 26 -11t11 -26zM1024 347v-73q0 -15 -11 -25.5t-26 -10.5h-950q-15 0 -26 10.5t-11 25.5v73q0 15 11 26t26 11h950q15 0 26 -11t11 -26zM1024 567v-73q0 -15 -11 -26t-26 -11
h-950q-15 0 -26 11t-11 26v73q0 15 11 26t26 10h950q15 0 26 -10.5t11 -25.5zM1024 786v-73q0 -15 -11 -26t-26 -10h-950q-15 0 -26 10.5t-11 25.5v73q0 15 11 26t26 11h950q15 0 26 -11t11 -26z" />
    <glyph glyph-name="uniE9B6" unicode="&#xe9b6;" horiz-adv-x="1098" 
d="M366 91.5q0 30.5 -21.5 52t-52 21.5t-52 -21.5t-21.5 -52t21.5 -52t52 -21.5t52 21.5t21.5 52zM146 384h220v146h-91q-8 -1 -12 -5l-112 -111q-4 -7 -5 -13v-17zM878 91.5q0 30.5 -21.5 52t-52 21.5t-52 -21.5t-21.5 -52t21.5 -52t52 -21.5t52 21.5t21.5 52zM951 475v110
q0 8 -5 13.5t-13 4.5h-128v128q0 8 -5.5 13.5t-13.5 5.5h-109q-8 0 -13.5 -5.5t-5.5 -13.5v-128h-128q-8 0 -13 -5t-5 -13v-110q0 -8 5 -13t13 -5h128v-128q0 -8 5.5 -13t13.5 -5h109q8 0 13.5 5t5.5 13v128h128q8 0 13 5t5 13zM1097 786v-658q0 -15 -11 -26t-25 -11h-110
q0 -60 -43 -103t-103.5 -43t-103.5 43t-43 103h-219q0 -60 -43 -103t-103.5 -43t-103.5 43t-43 103h-73q-15 0 -26 11t-10.5 26t11 26t25.5 11v237q0 15 7.5 33.5t18.5 29.5l113 113q11 11 29 18t33 7h92v183q0 15 10.5 26t25.5 11h659q14 0 25 -11t11 -26z" />
    <glyph glyph-name="uniE9B8" unicode="&#xe9b8;" 
d="M691 680l-65 -188l66 -12q95 258 95 296q0 32 -22 32q-33 0 -74 -128zM520 287l19 -50q21 24 40 38l-18 3l-22 4zM353 799q0 -56 91 -297q10 5 28 5q9 0 43 -3l-69 201q-43 126 -71 126q-10 0 -16 -10t-6 -22zM308 366q0 -21 29.5 -68.5t67 -87.5t57.5 -40q8 0 14.5 7.5
t6.5 15.5q0 14 -18 58q-8 19 -19 41.5t-27 50.5t-35 46.5t-35 18.5q-12 0 -26.5 -15.5t-14.5 -26.5zM218 174q0 -23 14 -59q34 -83 105 -130t161 -47q129 0 218 97q87 97 87 244q0 25 -0.5 38.5t-6.5 35.5t-18 32q-32 28 -120.5 43t-154.5 15q-21 0 -28 -6q-7 -3 -7 -20
q0 -19 12.5 -34t31.5 -23t44 -13.5t50 -6.5t48.5 -2.5t40.5 0.5h13q14 0 23 -11q8 -11 11 -32q-16 -16 -55 -31q-35 -12 -53 -26q-37 -26 -62.5 -65t-25.5 -78q0 -18 10.5 -51t10.5 -50l-1 -7q-3 -6 -3 -8q-78 6 -83 124q-5 -1 -23 -1q1 -4 1 -12q0 -31 -23 -51.5t-54 -20.5
q-47 0 -95.5 44.5t-48.5 90.5q0 20 19 38q30 -36 34 -43q44 -60 76 -60q7 0 15.5 5t8.5 12q0 19 -50 82.5t-67 63.5q-24 0 -39.5 -25.5t-15.5 -51.5zM153 169q0 58 24 93.5t78 50.5q-16 42 -16 59q0 35 35 70t69 35q17 0 40 -8q-93 263 -93 324q0 45 23.5 74t68.5 29
q75 0 185 -332q4 -10 5 -13q3 9 16.5 45.5t25 67.5t30.5 72.5t37 70.5t40.5 49.5t43.5 20.5q41 0 64.5 -28t23.5 -70q0 -61 -91 -314q35 -8 57.5 -26t33 -44.5t14.5 -53.5t4 -63q0 -86 -26.5 -160t-75 -128.5t-120.5 -86t-159 -31.5q-64 0 -128 24q-85 33 -147 109.5
t-62 163.5z" />
    <glyph glyph-name="uniE9CB" unicode="&#xe9cb;" 
d="M391.5 620q9.5 0 16 6.5t6.5 15.5t-6.5 16t-16 7t-15.5 -7t-6 -16t6 -15.5t15.5 -6.5zM632.5 620q9.5 0 15.5 6.5t6 15.5t-6 16t-15.5 7t-16 -7t-6.5 -16t6.5 -15.5t16 -6.5zM169 515q24 0 41 -17t17 -41v-246q0 -25 -17 -42t-41.5 -17t-41.5 17t-17 42v246q0 24 17 41
t42 17zM774 504v-381q0 -26 -18 -44t-44 -18h-43v-130q0 -25 -17 -42t-41.5 -17t-42 17t-17.5 42v130h-78v-130q0 -25 -17.5 -42t-41.5 -17t-41.5 17t-16.5 42l-1 130h-42q-27 0 -45 18t-18 44v381h524zM642 735q61 -31 97.5 -87t36.5 -123h-529q0 66 37 122.5t98 87.5
l-40 75q-4 8 3 12q7 3 11 -4l41 -75q54 24 114.5 24t115.5 -24l41 75q4 7 11 4q7 -4 3 -12zM914 457v-246q0 -25 -17 -42t-42 -17q-24 0 -41 17t-17 42v246q0 24 17 41t41 17q25 0 42 -17t17 -41z" />
    <glyph glyph-name="uniE9D0" unicode="&#xe9d0;" 
d="M806 587l-203 -203l203 -203l83 82q16 18 40 8q22 -9 22 -33v-256q0 -15 -11 -26t-26 -11h-256q-24 0 -33 23q-10 22 8 39l82 83l-203 202l-203 -202l82 -83q18 -17 8 -39q-9 -23 -33 -23h-256q-15 0 -26 11t-11 26v256q0 24 23 33q22 10 39 -8l83 -82l202 203l-202 203
l-83 -82q-10 -11 -25 -11q-7 0 -14 3q-23 9 -23 33v256q0 15 11 26t26 11h256q24 0 33 -23q10 -22 -8 -39l-82 -83l203 -202l203 202l-82 83q-18 17 -8 39q9 23 33 23h256q15 0 26 -11t11 -26v-256q0 -24 -22 -33q-8 -3 -15 -3q-15 0 -25 11z" />
    <glyph glyph-name="uniE9E0" unicode="&#xe9e0;" horiz-adv-x="1171" 
d="M146 311h988q15 0 25.5 -11t10.5 -26v-256h-146v147h-878v-147h-146v695q0 15 11 26t26 11h73q15 0 25.5 -11t10.5 -26v-402zM475 493.5q0 60.5 -42.5 103.5t-103 43t-103.5 -43t-43 -103.5t43 -103.5t103.5 -43t103 43t42.5 103.5zM1170 347v37q0 91 -64 155t-155 64
h-402q-15 0 -26 -10.5t-11 -25.5v-220h658z" />
    <glyph glyph-name="uniE9E4" unicode="&#xe9e4;" 
d="M521 -73q0 9 -9 9q-34 0 -58 24.5t-24 57.5q0 9 -9.5 9t-9.5 -9q0 -41 29.5 -70.5t71.5 -29.5q9 0 9 9zM987 91q0 -29 -21.5 -51t-51.5 -22h-256q0 -60 -42.5 -103t-103.5 -43t-103.5 43t-42.5 103h-256q-30 0 -51.5 22t-21.5 51q28 24 51.5 50.5t48.5 68.5t42.5 90.5
t29 117.5t10.5 149q0 87 67 161.5t176 90.5q-5 11 -5 22q0 23 16 39t39 16t39 -16t16 -39q0 -11 -5 -22q109 -16 176 -90.5t67 -161.5q0 -80 11 -149t28.5 -117.5t42.5 -90.5t48.5 -68.5t51.5 -50.5z" />
    <glyph glyph-name="uniE9E5" unicode="&#xe9e5;" 
d="M521 -73q0 9 -9 9q-34 0 -58 24.5t-24 57.5q0 9 -9.5 9t-9.5 -9q0 -41 29.5 -70.5t71.5 -29.5q9 0 9 9zM141 91h742q-152 172 -152 476q0 29 -13.5 60t-39 59t-69.5 46t-97 18t-96.5 -18t-69.5 -46t-39.5 -59t-13.5 -60q0 -304 -152 -476zM987 91q0 -29 -21.5 -51
t-51.5 -22h-256q0 -60 -42.5 -103t-103.5 -43t-103.5 43t-42.5 103h-256q-30 0 -51.5 22t-21.5 51q28 24 51.5 50.5t48.5 68.5t42.5 90.5t29 117.5t10.5 149q0 87 67 161.5t176 90.5q-5 11 -5 22q0 23 16 39t39 16t39 -16t16 -39q0 -11 -5 -22q109 -16 176 -90.5t67 -161.5
q0 -80 11 -149t28.5 -117.5t42.5 -90.5t48.5 -68.5t51.5 -50.5z" />
    <glyph glyph-name="uniE9EA" unicode="&#xe9ea;" 
d="M823 386q0 92 -50 168l-431 -430q78 -51 170 -51q63 0 120.5 25t99.5 66.5t66.5 99.5t24.5 122zM252 215l431 431q-77 52 -171 52q-85 0 -156.5 -42t-113 -114t-41.5 -156q0 -93 51 -171zM951 385.5q0 -89.5 -35 -171t-93.5 -140.5t-140 -94t-170.5 -35t-170.5 35
t-140 93.5t-93.5 140.5t-35 171.5t35 171t93.5 140.5t140 94t170.5 35t170.5 -35t140 -94t93.5 -140.5t35 -171z" />
    <glyph glyph-name="uniE9EB" unicode="&#xe9eb;" horiz-adv-x="1098" 
d="M549 896l548 -219v-74h-73q0 -14 -11.5 -25t-27.5 -11h-872q-16 0 -28 11t-12 25h-73v74zM146 530h147v-439h73v439h146v-439h73v439h146v-439h74v439h146v-439h34q16 0 27.5 -10.5t11.5 -25.5v-37h-951v37q0 15 12 26t28 10h33v439zM1058 -18q16 0 27.5 -11t11.5 -26
v-73h-1097v73q0 15 11.5 26t27.5 11h1019z" />
    <glyph glyph-name="uniEA0A" unicode="&#xea0a;" 
d="M762 573q10 -12 4 -26l-309 -661q-7 -14 -24 -14q-2 0 -8 1q-10 3 -14.5 11t-2.5 17l113 462l-232 -58q-3 -1 -7 -1q-11 0 -18 7q-10 8 -7 22l114 471q3 8 9.5 13.5t16.5 5.5h187q11 0 18.5 -7.5t7.5 -16.5q0 -5 -3 -11l-98 -264l226 56q5 1 7 1q11 0 20 -8z" />
    <glyph glyph-name="uniEA0D" unicode="&#xea0d;" 
d="M811 823q14 0 26 -5q18 -8 29.5 -24t11.5 -35v-737q0 -19 -11.5 -35t-29.5 -23q-11 -5 -26 -5q-27 0 -47 18l-252 243l-252 -243q-20 -19 -47 -19q-13 0 -25 6q-19 7 -30.5 23t-11.5 35v737q0 19 11.5 35t30.5 24q12 5 25 5h599h-1z" />
    <glyph glyph-name="uniEA0E" unicode="&#xea0e;" 
d="M805 750h-586v-710l293 281l51 -49l242 -232v710zM811 823q14 0 26 -5q18 -8 29.5 -24t11.5 -35v-737q0 -19 -11.5 -35t-29.5 -23q-11 -5 -26 -5q-27 0 -47 18l-252 243l-252 -243q-20 -19 -47 -19q-13 0 -25 6q-19 7 -30.5 23t-11.5 35v737q0 19 11.5 35t30.5 24
q12 5 25 5h599h-1z" />
    <glyph glyph-name="uniEA10" unicode="&#xea10;" 
d="M969 347q0 -14 -11 -25t-25 -11h-128q0 -98 -39 -166l119 -119q11 -11 11 -26t-11 -26q-10 -11 -25.5 -11t-25.5 11l-113 113q-3 -3 -9 -7.5t-24 -16.5t-37 -21t-47 -16.5t-56 -7.5v512h-73v-512q-29 0 -58 7.5t-49.5 19t-37.5 22.5t-25 19l-9 7l-104 -118
q-12 -12 -28 -12q-13 0 -24 9q-11 11 -12 26t9 26l115 130q-33 65 -33 157h-128q-15 0 -25.5 10.5t-10.5 25.5t10.5 26t25.5 11h128v168l-99 99q-10 11 -10 25.5t10.5 25.5t25.5 11t26 -11l99 -99h482l99 99q11 11 26 11t25.5 -11t10.5 -25.5t-11 -25.5l-98 -99v-168h128
q14 0 25 -11t11 -26zM695 677h-366q0 76 53.5 129.5t129.5 53t129.5 -53.5t53.5 -129z" />
    <glyph glyph-name="uniEA18" unicode="&#xea18;" horiz-adv-x="1025" 
d="M1024 91v-219h-1024v219q26 0 48.5 8t33.5 16t27 22q17 15 29.5 21.5t32.5 6.5t31.5 -6.5t30.5 -21.5q16 -15 26.5 -22.5t33 -15.5t49.5 -8q25 0 48 8.5t33.5 15.5t27.5 22q12 10 18.5 15t17.5 8.5t25 4.5q20 0 32 -6.5t30 -21.5q16 -14 26.5 -22t33.5 -16t48.5 -8
t48.5 8t34 16t27 22q17 15 29.5 21.5t32.5 6.5q19 0 31.5 -6.5t29.5 -21.5q16 -14 26.5 -22t33.5 -16t49 -8zM1024 274v-109q-20 0 -32 6t-30 22q-16 14 -26.5 21.5t-33.5 15.5t-48 8q-27 0 -49.5 -8t-33 -15.5t-26.5 -21.5q-13 -11 -19.5 -15.5t-17.5 -8.5t-25 -4
q-20 0 -32.5 6t-29.5 22q-16 14 -26.5 21.5t-33.5 15.5t-49 8t-48.5 -8.5t-33 -15.5t-27.5 -21q-12 -11 -18.5 -15.5t-17.5 -8.5t-25 -4q-20 0 -32.5 6t-29.5 22q-16 13 -27 21t-33.5 16t-48.5 8t-49 -8t-33.5 -15.5t-26.5 -21.5q-17 -16 -29.5 -22t-32.5 -6v109q0 46 32 78
t78 32h37v256h146v-256h146v256h146v-256h147v256h146v-256h37q45 0 77 -32t32 -78zM293 768q0 -44 -21 -67.5t-53 -23.5q-30 0 -51.5 21t-21.5 52q0 16 5.5 28.5t13.5 19.5t18 16t18 18t13 25.5t5 38.5q22 0 47.5 -42.5t26.5 -85.5zM585 768q0 -44 -20.5 -67.5t-52.5 -23.5
q-30 0 -51.5 21t-21.5 52q0 16 5.5 28.5t13.5 19.5t17.5 16t17.5 18t13.5 25.5t5.5 38.5q22 0 47.5 -42.5t25.5 -85.5zM878 768q0 -44 -20.5 -67.5t-52.5 -23.5q-31 0 -52.5 21t-21.5 52q0 16 5.5 28.5t13.5 19.5t18 16t18 18t13.5 25.5t5.5 38.5q21 0 47 -42.5t26 -85.5z
" />
    <glyph glyph-name="uniEA20" unicode="&#xea20;" horiz-adv-x="1098" 
d="M549 512q68 0 116 -48.5t48 -116.5t-48 -116t-116 -48t-116.5 48t-48.5 116t48.5 116.5t116.5 48.5zM951 750q60 0 103 -43t43 -104v-512q0 -60 -43 -103t-103 -43h-805q-60 0 -103 43t-43 103v512q0 61 43 104t103 43h128l29 77q11 28 40 48.5t59 20.5h293
q30 0 59 -20.5t40 -48.5l29 -77h128zM548.5 91q105.5 0 181 75.5t75 181t-75.5 180.5t-180.5 75t-180.5 -75t-75.5 -180.5t75 -181t181 -75.5z" />
    <glyph glyph-name="uniEA25" unicode="&#xea25;" 
d="M727 510q11 -20 -2 -37l-183 -256q-11 -16 -30 -16t-30 16l-183 256q-13 17 -2 37q9 20 32 20h366q23 0 32 -20zM805 110v548q0 8 -5.5 13.5t-13.5 5.5h-548q-8 0 -13.5 -5.5t-5.5 -13.5v-548q0 -8 5.5 -13.5t13.5 -5.5h548q8 0 13.5 5.5t5.5 13.5zM951 658v-548
q0 -68 -48.5 -116.5t-116.5 -48.5h-548q-68 0 -116.5 48.5t-48.5 116.5v548q0 68 48.5 116.5t116.5 48.5h548q68 0 116.5 -48.5t48.5 -116.5z" />
    <glyph glyph-name="uniEA26" unicode="&#xea26;" 
d="M658 567v-366q0 -15 -10.5 -26t-25.5 -10q-12 0 -21 6l-256 183q-16 11 -16 30t16 30l256 183q9 6 21 6q15 0 25.5 -10.5t10.5 -25.5zM805 110v548q0 8 -5.5 13.5t-13.5 5.5h-548q-8 0 -13.5 -5.5t-5.5 -13.5v-548q0 -8 5.5 -13.5t13.5 -5.5h548q8 0 13.5 5.5t5.5 13.5z
M951 658v-548q0 -68 -48.5 -116.5t-116.5 -48.5h-548q-68 0 -116.5 48.5t-48.5 116.5v548q0 68 48.5 116.5t116.5 48.5h548q68 0 116.5 -48.5t48.5 -116.5z" />
    <glyph glyph-name="uniEA27" unicode="&#xea27;" 
d="M695 384q0 -19 -16 -30l-256 -183q-17 -13 -37 -2q-20 9 -20 32v366q0 23 20 32q20 11 37 -2l256 -183q16 -11 16 -30zM805 110v548q0 8 -5.5 13.5t-13.5 5.5h-548q-8 0 -13.5 -5.5t-5.5 -13.5v-548q0 -8 5.5 -13.5t13.5 -5.5h548q8 0 13.5 5.5t5.5 13.5zM951 658v-548
q0 -68 -48.5 -116.5t-116.5 -48.5h-548q-68 0 -116.5 48.5t-48.5 116.5v548q0 68 48.5 116.5t116.5 48.5h548q68 0 116.5 -48.5t48.5 -116.5z" />
    <glyph glyph-name="uniEA28" unicode="&#xea28;" 
d="M727 258q-9 -20 -32 -20h-366q-23 0 -32 20q-11 20 2 37l183 256q11 16 30 16t30 -16l183 -256q13 -17 2 -37zM805 110v548q0 8 -5.5 13.5t-13.5 5.5h-548q-8 0 -13.5 -5.5t-5.5 -13.5v-548q0 -8 5.5 -13.5t13.5 -5.5h548q8 0 13.5 5.5t5.5 13.5zM951 658v-548
q0 -68 -48.5 -116.5t-116.5 -48.5h-548q-68 0 -116.5 48.5t-48.5 116.5v548q0 68 48.5 116.5t116.5 48.5h548q68 0 116.5 -48.5t48.5 -116.5z" />
    <glyph glyph-name="uniEA2A" unicode="&#xea2a;" 
d="M293 201q0 30 -21.5 51.5t-52 21.5t-52 -21.5t-21.5 -51.5t21.5 -51.5t52 -21.5t52 21.5t21.5 51.5zM878 201q0 30 -21.5 51.5t-52 21.5t-52 -21.5t-21.5 -51.5t21.5 -51.5t52 -21.5t52 21.5t21.5 51.5zM851 427l-41 220q-3 13 -13 21.5t-23 8.5h-524q-13 0 -23 -8.5
t-13 -21.5l-41 -220q-3 -17 7.5 -30t28.5 -13h606q18 0 28.5 13t7.5 30zM722 777.5q0 11.5 -8 19.5t-19 8h-366q-11 0 -19 -8t-8 -19.5t8 -19.5t19 -8h366q11 0 19 8t8 19.5zM951 363v-345h-73v-73q0 -30 -21.5 -51.5t-52 -21.5t-52 21.5t-21.5 51.5v73h-438v-73
q0 -30 -21.5 -51.5t-52 -21.5t-52 21.5t-21.5 51.5v73h-73v345q0 64 14 127l59 260q5 44 56 78t131.5 51t178.5 17t178.5 -17t131.5 -51t56 -78l60 -260q13 -58 13 -127z" />
    <glyph glyph-name="uniEA2C" unicode="&#xea2c;" horiz-adv-x="1171" 
d="M1042 384q53 0 90.5 -37.5t37.5 -90.5v-219q0 -8 -5 -13.5t-13 -5.5h-55v-36q0 -46 -32 -78t-77.5 -32t-77.5 32t-32 78v36h-585v-36q0 -46 -32.5 -78t-78 -32t-77.5 32t-32 78v36h-55q-8 0 -13 5.5t-5 13.5v219q0 53 37.5 90.5t90.5 37.5h16l60 239q13 54 59.5 90.5
t102.5 36.5h73v128q0 8 5 13t13 5h256q8 0 13.5 -5t4.5 -13v-128h74q56 0 102 -36.5t59 -90.5l60 -239h16zM183 110q38 0 64.5 26.5t26.5 64.5t-26.5 65t-64.5 27t-65 -27t-27 -65t27 -64.5t65 -26.5zM295 384h580l-50 204q-2 5 -8.5 10.5t-11.5 4.5h-439q-5 0 -12 -5
t-8 -10zM987.5 110q37.5 0 64.5 26.5t27 64.5t-27 65t-64.5 27t-64.5 -27t-27 -65t27 -64.5t64.5 -26.5z" />
    <glyph glyph-name="uniEA2D" unicode="&#xea2d;" 
d="M256 18.5q0 30.5 -21.5 51.5t-51.5 21t-51.5 -21t-21.5 -51.5t21.5 -52t51.5 -21.5t51.5 21.5t21.5 52zM475 18.5q0 30.5 -21 51.5t-51.5 21t-52 -21t-21.5 -51.5t21.5 -52t52 -21.5t51.5 21.5t21 52zM256 237.5q0 30.5 -21.5 52t-51.5 21.5t-51.5 -21.5t-21.5 -52
t21.5 -51.5t51.5 -21t51.5 21t21.5 51.5zM695 18.5q0 30.5 -21.5 51.5t-52 21t-51.5 -21t-21 -51.5t21 -52t51.5 -21.5t52 21.5t21.5 52zM475 237.5q0 30.5 -21 52t-51.5 21.5t-52 -21.5t-21.5 -52t21.5 -51.5t52 -21t51.5 21t21 51.5zM256 457q0 30 -21.5 51.5t-51.5 21.5
t-51.5 -21.5t-21.5 -51.5t21.5 -51.5t51.5 -21.5t51.5 21.5t21.5 51.5zM695 237.5q0 30.5 -21.5 52t-52 21.5t-51.5 -21.5t-21 -52t21 -51.5t51.5 -21t52 21t21.5 51.5zM475 457q0 30 -21 51.5t-51.5 21.5t-52 -21.5t-21.5 -51.5t21.5 -51.5t52 -21.5t51.5 21.5t21 51.5z
M914 18v220q0 29 -21.5 51t-51.5 22t-51.5 -22t-21.5 -51v-220q0 -29 21.5 -51t51.5 -22t51.5 22t21.5 51zM695 457q0 30 -21.5 51.5t-52 21.5t-51.5 -21.5t-21 -51.5t21 -51.5t51.5 -21.5t52 21.5t21.5 51.5zM914 640v146q0 15 -10.5 26t-25.5 11h-732q-15 0 -25.5 -11
t-10.5 -26v-146q0 -15 10.5 -26t25.5 -11h732q15 0 25.5 11t10.5 26zM914 457q0 30 -21.5 51.5t-51.5 21.5t-51.5 -21.5t-21.5 -51.5t21.5 -51.5t51.5 -21.5t51.5 21.5t21.5 51.5zM987 823v-878q0 -30 -21.5 -51.5t-51.5 -21.5h-804q-30 0 -51.5 21.5t-21.5 51.5v878
q0 30 21.5 51.5t51.5 21.5h804q30 0 51.5 -21.5t21.5 -51.5z" />
    <glyph glyph-name="uniEA2E" unicode="&#xea2e;" 
d="M110 -55h164v165h-164v-165zM311 -55h183v165h-183v-165zM110 146h164v183h-164v-183zM311 146h183v183h-183v-183zM110 366h164v164h-164v-164zM530 -55h183v165h-183v-165zM311 366h183v164h-183v-164zM750 -55h164v165h-164v-165zM530 146h183v183h-183v-183zM329 640
v165q0 7 -5.5 12.5t-12.5 5.5h-37q-7 0 -12.5 -5.5t-5.5 -12.5v-165q0 -7 5.5 -12.5t12.5 -5.5h37q7 0 12.5 5.5t5.5 12.5zM750 146h164v183h-164v-183zM530 366h183v164h-183v-164zM750 366h164v164h-164v-164zM768 640v165q0 7 -5.5 12.5t-12.5 5.5h-37q-7 0 -12.5 -5.5
t-5.5 -12.5v-165q0 -7 5.5 -12.5t12.5 -5.5h37q7 0 12.5 5.5t5.5 12.5zM987 677v-732q0 -30 -21.5 -51.5t-51.5 -21.5h-804q-30 0 -51.5 21.5t-21.5 51.5v732q0 29 21.5 51t51.5 22h73v55q0 37 27 64t64 27h37q38 0 64.5 -27t26.5 -64v-55h220v55q0 37 26.5 64t64.5 27h37
q37 0 64 -27t27 -64v-55h73q30 0 51.5 -22t21.5 -51z" />
    <glyph glyph-name="uniEA2F" unicode="&#xea2f;" 
d="M781 345l-292 -292q-6 -6 -13.5 -6t-13.5 6l-164 164q-5 6 -5 13.5t5 12.5l26 26q5 5 12.5 5t13.5 -5l125 -126l254 254q6 5 13.5 5t12.5 -5l26 -26q5 -5 5 -12.5t-5 -13.5zM110 -55h804v585h-804v-585zM329 640v165q0 8 -5 13t-13 5h-37q-8 0 -13 -5t-5 -13v-165
q0 -8 5 -13t13 -5h37q8 0 13 5t5 13zM768 640v165q0 8 -5 13t-13 5h-37q-8 0 -13 -5t-5 -13v-165q0 -8 5 -13t13 -5h37q8 0 13 5t5 13zM987 677v-732q0 -30 -21.5 -51.5t-51.5 -21.5h-804q-30 0 -51.5 21.5t-21.5 51.5v732q0 29 21.5 51t51.5 22h73v55q0 37 27 64t64 27h37
q38 0 64.5 -27t26.5 -64v-55h220v55q0 37 26.5 64t64.5 27h37q37 0 64 -27t27 -64v-55h73q30 0 51.5 -22t21.5 -51z" />
    <glyph glyph-name="uniEA30" unicode="&#xea30;" horiz-adv-x="1317" 
d="M1115 326q0 -15 -9 -25.5t-22 -13.5q-5 -1 -10 -1h-88v80h88q5 0 10 -2q13 -2 22 -13t9 -25zM1105 447.5q0 -14.5 -9 -24t-22 -12.5h-8h-80v74h80q1 0 4 -1h4q13 -2 22 -12t9 -24.5zM416 354v176h-130v-176q0 -33 -22 -54t-60 -21q-62 0 -131 34v-64q30 -9 69 -13.5
t63 -5.5h24q187 0 187 124zM824 249v64q-57 -30 -114 -34q-62 -4 -97 24t-35 81t35 81t97 23q57 -4 114 -33v64q-27 7 -57 11.5t-46 5.5l-16 1q-72 3 -124.5 -8t-80.5 -34t-40.5 -50.5t-12.5 -60.5t12.5 -60.5t40.5 -50.5t80.5 -34.5t124.5 -7.5q58 2 119 17v1zM1243 314
q0 31 -24.5 51t-61.5 22v2q32 5 50.5 24t18.5 45q0 32 -23.5 50.5t-61.5 20.5q-2 0 -7 0.5t-8 0.5h-260v-292h281q42 0 69 21t27 55zM1317 750v-732q0 -29 -22 -51t-52 -22h-1170q-30 0 -51.5 22t-21.5 51v732q0 29 21.5 51t51.5 22h1170q30 0 52 -22t22 -51z" />
    <glyph glyph-name="uniEA31" unicode="&#xea31;" horiz-adv-x="1317" 
d="M383 363h-7q-27 0 -27 -18q0 -13 12 -13q9 0 15.5 8.5t6.5 22.5zM609 383h36v2v3q0 2 -0.5 4.5t-1.5 4.5t-2.5 4t-4 3t-6.5 1q-16 0 -21 -22zM918 363h-7q-28 0 -28 -18q0 -13 12 -13q10 0 16 8.5t7 22.5zM1100 378q0 23 -17 23q-11 0 -18 -11.5t-7 -28.5q0 -24 16 -24
q12 0 19 11t7 30zM274 458h50l-25 -149h-32l18 114l-40 -114h-23l-2 114l-20 -114h-30l25 149h47l1 -93zM419 397q0 -3 -2 -24q-10 -58 -10 -64h-27l1 12q-12 -15 -33 -15q-14 0 -22 9.5t-8 23.5q0 23 15 35t41 12h14v2v4l1 1q0 12 -21 12q-16 0 -34 -6q0 2 4 27q22 7 39 7
q42 0 42 -36zM508 430l-5 -28q-12 2 -23 2q-15 0 -15 -10q0 -4 2.5 -6.5t11.5 -6.5q23 -11 23 -34q0 -41 -49 -41q-20 0 -34 4q0 1 4 28q17 -5 30 -5q18 0 18 11q0 4 -2.5 6.5t-12.5 7.5q-25 11 -25 33q0 42 48 42q17 0 29 -3zM558 430h16l-4 -29h-16q-1 -10 -4 -23.5
t-4.5 -22t-1.5 -10.5q0 -9 11 -9q5 0 9 1l-4 -27q-12 -4 -23 -4q-24 0 -26 27q0 7 5 32l14 84h32zM674 389q0 -14 -4 -30h-63q-2 -13 5.5 -19t21.5 -6q17 0 33 8l-5 -31q-17 -5 -32 -5q-55 0 -55 55q0 31 16 51t40 20q20 0 31.5 -11.5t11.5 -32.5v1zM754 431q-8 -13 -13 -36
q-12 2 -17.5 -13t-14.5 -73h-32l2 8q12 74 16 113h30l-2 -18q8 11 14.5 16t16.5 3zM861 454l-6 -32q-16 8 -28 8q-18 0 -29.5 -16t-11.5 -40q0 -17 8 -27t22 -10q12 0 27 8l-5 -34q-16 -5 -29 -5q-26 0 -41 17.5t-15 47.5q0 40 20.5 65.5t52.5 25.5q15 0 35 -8zM953 397
q0 -10 -2 -24q-8 -45 -10 -64h-26v12q-11 -15 -33 -15q-13 0 -21 9.5t-8 23.5q0 23 14.5 35t41.5 12h13q1 4 1 7q0 12 -21 12q-16 0 -33 -6q0 2 4 27q22 7 38 7q42 0 42 -36zM1034 431q-8 -14 -12 -36q-13 2 -18 -12.5t-15 -73.5h-32l2 8q11 59 16 113h30q0 -6 -2 -19
q8 12 15 17t16 3zM1114 458h32l-24 -149h-31l2 10q-13 -13 -30 -13t-27.5 14t-10.5 36q0 31 15.5 53t36.5 22q18 0 30 -16zM1178 384q0 85 -41.5 156t-113.5 113t-156 42q-104 0 -188 -63q73 -66 98 -162h-28q-26 85 -91 144q-65 -59 -90 -144h-29q26 96 98 162
q-84 63 -187 63q-85 0 -156.5 -42t-113 -113t-41.5 -156t41.5 -156t113 -113t156.5 -42q103 0 187 63q-68 63 -94 151h28q27 -79 87 -133q61 54 87 133h29q-26 -88 -95 -151q84 -63 188 -63q84 0 156 42t113.5 113t41.5 156zM1317 750v-732q0 -29 -22 -51t-52 -22h-1170
q-30 0 -51.5 22t-21.5 51v732q0 29 21.5 51t51.5 22h1170q30 0 52 -22t22 -51z" />
    <glyph glyph-name="uniEA32" unicode="&#xea32;" horiz-adv-x="1317" 
d="M426 378q0 -21 -14.5 -35t-36.5 -14q-16 0 -26 9.5t-10 25.5q0 21 14 35.5t36 14.5q16 0 26.5 -9.5t10.5 -26.5zM874 463q0 -24 -12.5 -32.5t-37.5 -8.5h-18l9 61q2 6 8 6h10q13 0 20.5 -1t14 -7t6.5 -18zM1075 378q0 -20 -14.5 -34.5t-35.5 -14.5q-16 0 -26.5 9
t-10.5 25q0 22 14.5 36.5t35.5 14.5q16 0 26.5 -9.5t10.5 -26.5zM293 476q0 34 -22 49t-57 15h-92q-11 0 -12 -11l-37 -233q0 -3 2 -6t6 -3h43q11 0 13 11l10 63q0 4 3.5 7t9 4t10 1t10.5 -1t8 -1q49 0 77 28t28 77zM470 298l23 149q1 3 -1.5 6t-5.5 3h-44q-8 0 -9 -19
q-16 23 -55 23q-41 0 -70 -31t-29 -73q0 -33 20 -53t53 -20q16 0 33 7t28 18q-3 -7 -3 -12q0 -9 8 -9h39q11 0 13 11zM725 448q0 3 -2 5.5t-5 2.5h-44q-7 0 -11 -6l-60 -89l-25 86q-3 9 -13 9h-43q-3 0 -5 -2.5t-2 -5.5q0 -1 11 -33.5t24 -70.5t13 -40q-46 -64 -46 -69
q0 -7 7 -7h44q6 0 10 6l146 210q1 1 1 4zM942 476q0 34 -22 49t-57 15h-91q-11 0 -13 -11l-37 -233q0 -3 2 -6t6 -3h47q6 0 9 7l10 67q1 4 4 7t8.5 4t10 1t10.5 -1t8 -1q49 0 77 28t28 77zM1119 298l23 149q1 3 -1.5 6t-5.5 3h-44q-8 0 -9 -19q-15 23 -55 23
q-41 0 -69.5 -31t-28.5 -73q0 -33 19.5 -53t52.5 -20q17 0 34 7t27 18q0 -1 -1.5 -5.5t-1.5 -6.5q0 -9 8 -9h39q11 0 13 11zM1243 531v1q0 8 -7 8h-42q-7 0 -8 -6l-37 -238l-1 -1q0 -3 2.5 -5.5t5.5 -2.5h38q11 0 12 11zM224 455q-3 -20 -15 -26.5t-34 -6.5h-19l10 61
q1 6 7 6h11q23 0 33 -6.5t7 -27.5zM1317 750v-732q0 -29 -22 -51t-52 -22h-1170q-30 0 -51.5 22t-21.5 51v732q0 29 21.5 51t51.5 22h1170q30 0 52 -22t22 -51z" />
    <glyph glyph-name="uniEA33" unicode="&#xea33;" horiz-adv-x="1317" 
d="M913 380q0 -39 -12 -61q-11 -20 -30 -20q-13 0 -23 6v128q16 17 32 17q33 0 33 -70zM1163 401h-63q3 56 32 56t31 -56zM272 323q0 34 -19 52.5t-58 33.5q-20 7 -29 13t-9 15q0 14 21 14q33 0 71 -19l11 64q-39 19 -86 19q-44 0 -70 -22q-27 -22 -27 -62q0 -33 18.5 -52
t56.5 -32q22 -8 31 -14.5t9 -16.5q0 -17 -27 -17q-17 0 -40.5 7t-41.5 17l-10 -64q41 -24 96 -24q46 0 74 22q29 23 29 66zM441 446l10 64h-54v77l-74 -12l-11 -65l-26 -5l-10 -59h36v-125q0 -48 25 -68q22 -17 63 -17q19 0 46 6v67q-19 -4 -26 -4q-24 0 -24 29v112h44h1z
M621 432v79q-8 2 -16 2q-18 0 -31.5 -9t-19.5 -26l-6 32h-74v-269h85v174q15 18 47 18q9 0 15 -1zM642 241h86v269h-86v-269zM998 383q0 70 -26 102q-23 30 -63 30q-37 0 -67 -32l-5 27h-75v-369l86 14v87q20 -7 38 -7q48 0 77 32q35 37 35 116zM730 582q0 19 -13 32t-32 13
t-32 -13t-13 -32t13 -32.5t32 -13.5t32 13.5t13 32.5zM1243 378q0 64 -27 100q-29 37 -82 37q-55 0 -87 -38t-32 -103q0 -73 36 -107q32 -32 92 -32q58 0 92 23l-9 59q-33 -18 -73 -18q-25 0 -36 11q-14 11 -16 38h141q1 8 1 30zM1317 750v-732q0 -29 -22 -51t-52 -22h-1170
q-30 0 -51.5 22t-21.5 51v732q0 29 21.5 51t51.5 22h1170q30 0 52 -22t22 -51z" />
    <glyph glyph-name="uniEA34" unicode="&#xea34;" horiz-adv-x="1317" 
d="M1129 330h-79q8 21 37 103l2 5q2 5 5.5 14.5t5.5 14.5l7 -31zM303 367l-33 169q-6 31 -43 31h-153l-1 -8q178 -45 230 -192zM406 567l-93 -250l-10 50q-14 40 -48 74t-75 51l77 -291h100l149 366h-100zM485 200h95l59 367h-94zM924 558q-39 15 -85 15q-70 0 -115 -33.5
t-45 -87.5q-1 -58 83 -99q27 -14 38 -24t11 -22q0 -17 -17 -26t-40 -9q-49 0 -89 18l-12 7l-14 -83q43 -19 106 -19q74 -1 119 33.5t46 91.5q0 61 -80 99q-28 15 -40.5 24.5t-12.5 21.5q0 13 14 22.5t40 9.5q40 0 71 -14l9 -5zM1167 567h-73q-37 0 -50 -31l-141 -336h100
l20 55h121q3 -13 11 -55h88zM1317 750v-732q0 -29 -22 -51t-52 -22h-1170q-30 0 -51.5 22t-21.5 51v732q0 29 21.5 51t51.5 22h1170q30 0 52 -22t22 -51z" />
    <glyph glyph-name="uniEA44" unicode="&#xea44;" 
d="M779 395l-424 -424q-11 -11 -26 -11t-26 11l-95 95q-10 11 -10 25.5t10 25.5l304 304l-304 303q-10 11 -10 26t10 25l95 95q11 11 26 11t26 -11l424 -424q11 -11 11 -25.5t-11 -25.5z" />
    <glyph glyph-name="uniEA45" unicode="&#xea45;" 
d="M962 135l-95 -94q-11 -11 -26 -11t-26 11l-303 304l-303 -304q-11 -11 -26 -11t-26 11l-95 94q-11 11 -11 26.5t11 25.5l424 424q11 11 26 11t26 -11l424 -424q11 -10 11 -25.5t-11 -26.5z" />
    <glyph glyph-name="uniEA56" unicode="&#xea56;" 
d="M962 434l-424 -423q-11 -11 -26 -11t-26 11l-424 423q-11 11 -11 26t11 26l95 95q11 10 26 10t26 -10l303 -304l303 304q11 10 26 10t26 -10l95 -95q11 -11 11 -26t-11 -26z" />
    <glyph glyph-name="uniEA57" unicode="&#xea57;" 
d="M815 724l-303 -303l303 -304q11 -11 11 -25.5t-11 -25.5l-94 -95q-11 -11 -26 -11t-26 11l-424 424q-11 11 -11 25.5t11 25.5l424 424q11 11 26 11t26 -11l94 -95q11 -10 11 -25t-11 -26z" />
    <glyph glyph-name="uniEA5C" unicode="&#xea5c;" 
d="M366 384q0 -30 -21.5 -51.5t-52 -21.5t-52 21.5t-21.5 51.5t21.5 51.5t52 21.5t52 -21.5t21.5 -51.5zM585 384q0 -30 -21.5 -51.5t-51.5 -21.5t-51.5 21.5t-21.5 51.5t21.5 51.5t51.5 21.5t51.5 -21.5t21.5 -51.5zM805 384q0 -30 -21.5 -51.5t-52 -21.5t-52 21.5
t-21.5 51.5t21.5 51.5t52 21.5t52 -21.5t21.5 -51.5zM512 677q-117 0 -218 -40t-161 -107.5t-60 -145.5q0 -64 41 -122t115 -100l50 -29l-15 -55q-14 -52 -40 -98q86 36 157 98l24 21l33 -3q39 -5 74 -5q117 0 218 40t161 107.5t60 145.5t-59.5 145.5t-161 107.5t-218.5 40z
M1024 384q0 -99 -68.5 -183.5t-186.5 -133.5t-257 -49q-40 0 -83 5q-113 -100 -263 -138q-28 -8 -65 -13h-3q-8 0 -15 6t-9 16q-2 3 -0.5 7.5t1 5.5t2.5 5l4 5l4 5l4 5q4 5 18 20t20 21.5t17.5 23t18.5 29.5t15.5 33.5t14.5 43.5q-90 51 -141.5 125.5t-51.5 160.5
q0 74 40.5 142t109 117t163.5 78t199 29t199 -29t163.5 -78t109 -117t40.5 -142z" />
    <glyph glyph-name="uniEA5E" unicode="&#xea5e;" 
d="M805 457.5q0 -79.5 -54 -147t-147 -106.5t-202 -39q-49 0 -100 9q-71 -51 -159 -73q-21 -6 -49 -10h-2q-6 0 -11.5 4.5t-6.5 12.5q-1 2 -1 4t0.5 3.5t1.5 3.5l1 3l2 3l2 3l3 3l2 2q3 4 13.5 14.5t15 16.5t12.5 16.5t14 22t12 25.5q-71 41 -111.5 101t-40.5 128
q0 80 53.5 147t146.5 106.5t202 39.5t202 -39.5t147 -106.5t54 -146.5zM1024 311q0 -69 -40.5 -128.5t-111.5 -100.5q6 -14 12 -25.5t14 -22t12.5 -16.5t15 -17t13.5 -14q0 -1 2 -3t3 -2.5t2 -2.5l2 -4l1 -2l2 -4v-4l-1 -3q-1 -8 -7 -13t-13 -4q-28 4 -49 9q-88 23 -159 73
q-51 -9 -100 -9q-155 0 -270 76q33 -3 50 -3q92 0 176.5 26t151.5 74q71 52 109.5 120.5t38.5 145.5q0 44 -14 87q74 -41 117 -102t43 -131z" />
    <glyph glyph-name="uniEA5F" unicode="&#xea5f;" 
d="M402 677q-87 0 -163 -30t-121 -81t-45 -109q0 -47 30.5 -90t85.5 -76l55 -32l-20 -48q20 12 36 23l25 17l30 -5q44 -8 87 -8q88 0 164 29.5t120.5 80.5t44.5 109t-44.5 109t-120.5 81t-164 30zM402 750q109 0 202 -39.5t147 -106.5t54 -146.5t-54 -147t-147 -106.5
t-202 -39q-49 0 -100 9q-71 -51 -159 -73q-21 -6 -49 -10h-2q-6 0 -11.5 4.5t-6.5 12.5q-1 2 -1 4t0.5 3.5t1.5 3.5l1 3l2 3l2 3l3 3l2 2q3 4 13.5 14.5t15 16.5t12.5 16.5t14 22t12 25.5q-71 41 -111.5 101t-40.5 128q0 80 53.5 147t146.5 106.5t202 39.5zM872 82
q6 -14 12 -25.5t14 -22t12.5 -16.5t15 -17t13.5 -14q0 -1 2 -3t3 -2.5t2 -2.5l2 -4l1 -2l2 -4v-4l-1 -3q-1 -8 -7 -13t-13 -4q-28 4 -49 9q-88 23 -159 73q-51 -9 -100 -9q-155 0 -270 76q33 -3 50 -3q92 0 176.5 26t151.5 74q71 52 109.5 120.5t38.5 145.5q0 44 -14 87
q74 -41 117 -102t43 -131q0 -69 -40.5 -128.5t-111.5 -100.5z" />
    <glyph glyph-name="uniEA66" unicode="&#xea66;" 
d="M563 18h-98q-8 0 -13 5.5t-5 13.5v188h-165q-7 0 -12.5 5t-5.5 13v59q0 8 5.5 13.5t12.5 5.5h165v48h-165q-7 0 -12.5 5t-5.5 13v60q0 7 5.5 12.5t12.5 5.5h122l-183 331q-5 9 0 18q6 9 16 9h111q11 0 16 -10l123 -243q11 -22 32 -72q6 14 17.5 39t15.5 35l110 240
q4 11 16 11h109q10 0 16 -9q5 -8 0 -18l-179 -331h123q8 0 13.5 -5.5t5.5 -12.5v-60q0 -8 -5.5 -13t-13.5 -5h-165v-48h165q8 0 13.5 -5.5t5.5 -13.5v-59q0 -8 -5.5 -13t-13.5 -5h-165v-188q0 -8 -5.5 -13.5t-13.5 -5.5z" />
    <glyph glyph-name="uniEA77" unicode="&#xea77;" horiz-adv-x="1098" 
d="M353 97l-29 -29q-6 -6 -13.5 -6t-12.5 6l-267 266q-5 6 -5 13.5t5 13.5l267 266q5 6 12.5 6t13.5 -6l29 -29q5 -5 5 -12.5t-5 -13.5l-225 -225l225 -224q5 -6 5 -13.5t-5 -12.5zM690 706l-213 -737q-2 -8 -8.5 -11.5t-13.5 -1.5l-36 10q-7 2 -10.5 8.5t-1.5 14.5l213 737
q2 8 8.5 11.5t13.5 1.5l36 -10q7 -2 11 -8.5t1 -14.5zM1066 334l-267 -266q-5 -6 -12.5 -6t-13.5 6l-29 29q-5 5 -5 12.5t5 13.5l225 224l-225 225q-5 6 -5 13.5t5 12.5l29 29q6 6 13.5 6t12.5 -6l267 -266q5 -6 5 -13.5t-5 -13.5z" />
    <glyph glyph-name="uniEA7B" unicode="&#xea7b;" 
d="M658 384q0 61 -42.5 103.5t-103.5 42.5t-103.5 -42.5t-42.5 -103.5t42.5 -103.5t103.5 -42.5t103.5 42.5t42.5 103.5zM951 446v-127q0 -6 -4.5 -12.5t-11.5 -7.5l-106 -16q-11 -31 -22 -52q20 -29 61 -79q6 -7 6 -14.5t-5 -12.5q-16 -22 -57 -62.5t-54 -40.5q-6 0 -14 5
l-79 62q-25 -13 -52 -22q-9 -77 -17 -106q-4 -16 -20 -16h-127q-8 0 -14 5t-7 12l-16 105q-28 10 -51 22l-81 -62q-6 -5 -14 -5t-14 7q-72 65 -95 96q-4 5 -4 13q0 7 5 13q8 12 29 38t31 40q-16 29 -24 57l-104 15q-8 1 -12.5 7t-4.5 14v127q0 7 4.5 13t11.5 7l106 16
q8 27 22 53q-23 32 -61 79q-6 7 -6 13t6 14q14 20 55.5 61t54.5 41q7 0 15 -6l78 -61q26 13 53 22q9 77 16 106q4 16 21 16h126q8 0 14 -5t7 -12l16 -105q28 -9 51 -21l82 61q5 5 13 5t15 -6q73 -68 94 -97q4 -4 4 -13q0 -6 -5 -13q-8 -12 -28.5 -38t-31.5 -40
q15 -29 24 -56l104 -16q8 -1 12.5 -7t4.5 -14z" />
    <glyph glyph-name="uniEA7F" unicode="&#xea7f;" 
d="M366 384q0 30 -21.5 51.5t-52 21.5t-52 -21.5t-21.5 -51.5t21.5 -51.5t52 -21.5t52 21.5t21.5 51.5zM585 384q0 30 -21.5 51.5t-51.5 21.5t-51.5 -21.5t-21.5 -51.5t21.5 -51.5t51.5 -21.5t51.5 21.5t21.5 51.5zM805 384q0 30 -21.5 51.5t-52 21.5t-52 -21.5t-21.5 -51.5
t21.5 -51.5t52 -21.5t52 21.5t21.5 51.5zM1024 384q0 -99 -68.5 -183.5t-186.5 -133.5t-257 -49q-63 0 -121 11q-98 -99 -248 -131q-30 -6 -49 -8q-7 0 -13 4t-7 10q-3 9 11 21q3 3 13.5 12.5t14.5 13.5t13.5 14.5t13.5 18t12 21t11.5 27.5t8 33t7.5 41q-84 52 -131.5 124
t-47.5 154q0 99 68.5 183.5t186.5 133.5t257 49t257 -49t186.5 -133.5t68.5 -183.5z" />
    <glyph glyph-name="uniEA83" unicode="&#xea83;" horiz-adv-x="1171" 
d="M121 457l356 -380l-171 380h-185zM585 16l200 441h-399zM307 530l117 220h-150l-164 -220h197zM693 77l356 380h-184zM390 530h390l-117 220h-156zM863 530h198l-165 220h-150zM943 808l220 -293q8 -10 7.5 -23.5t-9.5 -22.5l-549 -586q-10 -11 -26.5 -11t-27.5 11
l-548 586q-9 9 -10 22.5t8 23.5l219 293q10 15 29 15h658q19 0 29 -15z" />
    <glyph glyph-name="uniEA92" unicode="&#xea92;" 
d="M512 457q135 0 253 24.5t186 72.5v-97q0 -39 -59 -73t-160 -53.5t-220 -19.5t-220 19.5t-160 53.5t-59 73v97q68 -48 185.5 -72.5t253.5 -24.5zM512 18q135 0 253 24.5t186 72.5v-97q0 -39 -59 -73t-160 -53.5t-220 -19.5t-220 20t-160 53.5t-59 72.5v97
q68 -48 185.5 -72.5t253.5 -24.5zM512 238q135 0 253 24.5t186 72.5v-97q0 -40 -59 -73.5t-160 -53t-220 -20t-220 19.5t-160 53.5t-59 73.5v97q68 -48 185.5 -72.5t253.5 -24.5zM512 896q119 0 220 -19.5t160 -53.5t59 -73v-73q0 -40 -59 -73.5t-160 -53.5t-220 -20
t-220 20t-160 53.5t-59 73.5v73q0 39 59 73t160 53.5t220 19.5z" />
    <glyph glyph-name="uniEA95" unicode="&#xea95;" 
d="M329 475v-109q0 -23 -16 -39t-39 -16h-109q-23 0 -39 16t-16 39v109q0 23 16 39t39 16h109q23 0 39 -16t16 -39zM622 475v-109q0 -23 -16 -39t-39 -16h-110q-23 0 -39 16t-16 39v109q0 23 16 39t39 16h110q23 0 39 -16t16 -39zM914 475v-109q0 -23 -16 -39t-39 -16h-109
q-23 0 -39 16t-16 39v109q0 23 16 39t39 16h109q23 0 39 -16t16 -39z" />
    <glyph glyph-name="uniEA96" unicode="&#xea96;" 
d="M622 183v-110q0 -23 -16 -39t-39 -16h-110q-23 0 -39 16t-16 39v110q0 23 16 39t39 16h110q23 0 39 -16t16 -39zM622 475v-109q0 -23 -16 -39t-39 -16h-110q-23 0 -39 16t-16 39v109q0 23 16 39t39 16h110q23 0 39 -16t16 -39zM622 768v-110q0 -23 -16 -39t-39 -16h-110
q-23 0 -39 16t-16 39v110q0 23 16 39t39 16h110q23 0 39 -16t16 -39z" />
    <glyph glyph-name="uniEAB4" unicode="&#xeab4;" 
d="M951 347q-87 135 -218 202q35 -59 35 -128q0 -106 -75 -181.5t-181 -75t-181 75.5t-75 181q0 69 35 128q-131 -67 -218 -202q76 -117 190.5 -186.5t248.5 -69.5t248.5 69.5t190.5 186.5zM539.5 566.5q-0.5 11.5 -8.5 19.5t-19 8q-71 0 -122.5 -51t-51.5 -122q0 -12 8 -20
t19.5 -8t19.5 8t8 20q0 49 35 83.5t84 34.5q11 0 19.5 8t8 19.5zM1024 347.5q0 -19.5 -11 -39.5q-80 -131 -215.5 -210.5t-285.5 -79.5t-285 79.5t-215 210.5q-12 20 -12 39.5t12 39.5q80 131 215 210.5t285 79.5t285.5 -79.5t215.5 -210.5q11 -20 11 -39.5z" />
    <glyph glyph-name="uniEABF" unicode="&#xeabf;" 
d="M911 727q10 -23 -8 -40l-281 -281v-424q0 -24 -23 -34q-7 -3 -14 -3q-15 0 -26 11l-146 146q-11 11 -11 26v278l-281 281q-18 17 -8 40q9 23 33 23h732q24 0 33 -23z" />
    <glyph glyph-name="uniEAC3" unicode="&#xeac3;" horiz-adv-x="1025" 
d="M183 750q0 -41 -37 -63v-724q0 -7 -5.5 -12.5t-12.5 -5.5h-37q-7 0 -12.5 5.5t-5.5 12.5v724q-36 22 -36 63q0 30 21 51.5t51.5 21.5t52 -21.5t21.5 -51.5zM1024 713v-436q0 -14 -7 -22t-23 -16q-123 -66 -211 -66q-35 0 -70.5 12.5t-62 27.5t-66 27.5t-81.5 12.5
q-109 0 -265 -83q-10 -5 -19 -5q-14 0 -25 10.5t-11 25.5v424q0 18 17 32q12 8 46 24q134 69 240 69q61 0 114.5 -16.5t125.5 -50.5q21 -11 50 -11q31 0 67 12t62.5 27t50.5 27t31 12q15 0 26 -11t11 -26z" />
    <glyph glyph-name="uniEAC4" unicode="&#xeac4;" 
d="M475 325v109q-103 -9 -219 -67v-105q117 55 219 63zM475 563v113q-98 -5 -219 -72v-108q123 63 219 67zM951 299v105q-134 -66 -220 -41v128q-11 4 -22 9q-3 2 -19 10t-19.5 9.5t-18 8.5t-20 9t-18.5 7.5t-20.5 7t-20 4.5t-22.5 4.5t-22.5 2.5t-25.5 1t-28 -2v-126h11
q58 0 110 -17t113 -47q11 -5 22 -8v-108q24 -10 52 -10q69 0 168 53zM951 543v108q-97 -52 -175 -52q-26 0 -45 4v-112q85 -24 220 52zM183 750q0 -20 -10 -36.5t-27 -26.5v-724q0 -8 -5 -13t-13 -5h-37q-8 0 -13 5t-5 13v724q-16 10 -26 26.5t-10 36.5q0 30 21 51.5
t51.5 21.5t52 -21.5t21.5 -51.5zM1024 713v-436q0 -22 -20 -32q-6 -3 -10 -6q-124 -66 -211 -66q-50 0 -90 20l-16 8q-36 19 -56 27.5t-52 16.5t-66 8q-58 0 -134 -25t-131 -58q-8 -5 -19 -5q-9 0 -18 4q-18 11 -18 32v424q0 20 18 32q20 12 44.5 24t65 29.5t87 28.5
t88.5 11q64 0 119.5 -18t119.5 -49q22 -11 51 -11q70 0 177 64q13 7 18 10q18 9 35 -1q18 -12 18 -32z" />
    <glyph glyph-name="uniEAC8" unicode="&#xeac8;" 
d="M293 18h438v220h-438v-220zM805 18h73v512q0 8 -6 22t-11 20l-161 161q-6 5 -19.5 11t-22.5 6v-238q0 -23 -16 -39t-39 -16h-329q-23 0 -39 16t-16 39v238h-73v-732h73v238q0 23 16 39t39 16h476q22 0 38.5 -16t16.5 -39v-238zM585 549v182q0 8 -5.5 13.5t-12.5 5.5h-110
q-7 0 -12.5 -5.5t-5.5 -13.5v-182q0 -8 5.5 -13.5t12.5 -5.5h110q7 0 12.5 5.5t5.5 13.5zM951 530v-530q0 -23 -16 -39t-39 -16h-768q-23 0 -39 16t-16 39v768q0 23 16 39t39 16h530q23 0 50.5 -11.5t43.5 -27.5l160 -160q16 -16 27.5 -43.5t11.5 -50.5z" />
    <glyph glyph-name="uniEACF" unicode="&#xeacf;" 
d="M912 624q8 -8 16 -21h-270v270q13 -8 21 -16zM640 530h311v-603q0 -23 -16 -39t-39 -16h-768q-23 0 -39 16t-16 39v914q0 23 16 39t39 16h457v-311q0 -23 16 -39t39 -16zM731 110v36q0 8 -5 13.5t-13 5.5h-402q-8 0 -13.5 -5.5t-4.5 -13.5v-36q0 -8 5 -13.5t13 -5.5h402
q8 0 13.5 5.5t4.5 13.5zM731 256v37q0 8 -5 13t-13 5h-402q-8 0 -13.5 -5t-4.5 -13v-37q0 -8 5 -13t13 -5h402q8 0 13.5 5t4.5 13zM731 402v37q0 8 -5 13t-13 5h-402q-8 0 -13.5 -5t-4.5 -13v-37q0 -8 5 -13t13 -5h402q8 0 13.5 5t4.5 13z" />
    <glyph glyph-name="uniEAE3" unicode="&#xeae3;" horiz-adv-x="1098" 
d="M476 274v73q0 8 -5.5 13.5t-13.5 5.5h-109v109q0 8 -5.5 13.5t-13.5 5.5h-73q-8 0 -13 -5.5t-5 -13.5v-109h-110q-8 0 -13 -5.5t-5 -13.5v-73q0 -8 5 -13t13 -5h110v-110q0 -8 5 -13t13 -5h73q8 0 13.5 5t5.5 13v110h109q8 0 13.5 5t5.5 13zM805 237.5q0 30.5 -21.5 52
t-52 21.5t-52 -21.5t-21.5 -52t21.5 -51.5t52 -21t52 21t21.5 51.5zM951 384q0 30 -21.5 51.5t-51.5 21.5t-51.5 -21.5t-21.5 -51.5t21.5 -51.5t51.5 -21.5t51.5 21.5t21.5 51.5zM1097 311q0 -121 -85.5 -207t-206.5 -86q-110 0 -194 73h-125q-84 -73 -193 -73
q-122 0 -207.5 86t-85.5 207t85.5 206.5t207.5 85.5h512q121 0 206.5 -85.5t85.5 -206.5z" />
    <glyph glyph-name="uniEAE4" unicode="&#xeae4;" horiz-adv-x="1098" 
d="M1074 352q0 -18 -18 -38l-192 -226q-25 -29 -69 -49.5t-82 -20.5h-621q-20 0 -35 7.5t-15 24.5q0 18 17 38l192 226q25 29 69.5 49.5t81.5 20.5h622q19 0 34.5 -7.5t15.5 -24.5zM878 549v-92h-476q-53 0 -112 -27t-94 -68l-195 -230q0 2 -0.5 7t-0.5 7v549q0 52 37.5 90
t90.5 38h183q52 0 90 -38t38 -90v-18h311q52 0 90 -38t38 -90z" />
    <glyph glyph-name="uniEAE5" unicode="&#xeae5;" horiz-adv-x="1098" 
d="M1018 364q0 20 -31 20h-621q-23 0 -49 -12.5t-41 -29.5l-168 -208q-10 -13 -10 -23q0 -19 30 -19h622q22 0 48.5 12.5t40.5 29.5l168 208q11 12 11 22zM366 457h439v92q0 22 -16 38t-39 16h-329q-23 0 -39 16t-16 39v37q0 23 -16 39t-39 16h-183q-23 0 -39 -16t-16 -39
v-488l146 180q26 31 67 50.5t80 19.5zM1091 364q0 -35 -26 -69l-169 -207q-25 -30 -66.5 -50t-79.5 -20h-622q-53 0 -90.5 38t-37.5 90v549q0 52 37.5 90t90.5 38h183q52 0 90 -38t38 -90v-18h311q52 0 90 -38t38 -90v-92h109q31 0 57 -14t38 -40q9 -18 9 -39z" />
    <glyph glyph-name="uniEAE9" unicode="&#xeae9;" 
d="M62 -47q-11 -11 -18 -7.5t-7 17.5v842q0 14 7 17.5t18 -7.5l406 -405q5 -5 8 -11v406q0 14 7 17.5t18 -7.5l406 -405q11 -11 11 -26t-11 -26l-406 -406q-11 -10 -18 -7t-7 18v406q-3 -6 -8 -11z" />
    <glyph glyph-name="uniEAF3" unicode="&#xeaf3;" 
d="M410 122l155 155l-160 160l-50 -51l110 -109l-55 -55l-160 160l160 159l22 -23l50 50l-72 73l-260 -259zM614 127l260 259l-260 260l-155 -155l160 -160l50 51l-110 109l55 55l160 -160l-160 -159l-22 23l-50 -51zM1024 384q0 -104 -40.5 -199t-109 -163.5t-163.5 -109
t-199 -40.5t-199 40.5t-163.5 109t-109 163.5t-40.5 199t40.5 199t109 163.5t163.5 109t199 40.5t199 -40.5t163.5 -109t109 -163.5t40.5 -199z" />
    <glyph glyph-name="uniEB02" unicode="&#xeb02;" 
d="M298 123q-4 -5 -11 2q-8 6 -2 11q4 5 11 -2q7 -6 2 -11zM274 158q5 -7 0 -11q-4 -3 -9.5 4.5t0.5 10.5q5 4 9 -4zM239 193q-2 -4 -7 -2q-6 3 -4 7q2 3 7 1q6 -2 4 -6zM257 173q-3 -4 -9 2q-5 6 -1 9q3 3 9 -2q5 -6 1 -9zM331 109q-2 -7 -11 -3q-10 2 -7.5 8.5t10.5 3.5
q10 -3 8 -9zM367 106q0 -6 -9 -6q-10 -1 -10 6t9 7q10 1 10 -7zM400 112q1 -6 -8 -8t-10 4.5t8 8.5q9 1 10 -5zM951 658v-548q0 -68 -48.5 -116.5t-116.5 -48.5h-128q-9 0 -14 0.5t-11 3t-9 8.5t-3 16v136q0 56 -29 81q32 4 58 10.5t53.5 22t46.5 38.5t30.5 60t11.5 86
q0 69 -45 118q21 52 -5 116q-16 5 -46 -6.5t-52 -24.5l-22 -14q-53 15 -109.5 15t-110.5 -15q-9 6 -24 15.5t-47.5 22t-49.5 7.5q-25 -64 -4 -116q-45 -49 -45 -118q0 -49 11.5 -86t30 -60t46.5 -38t53.5 -22t58.5 -11q-23 -20 -28 -59q-12 -5 -25.5 -8t-32.5 -3t-37.5 12.5
t-31.5 35.5q-11 18 -28 29.5t-28 13.5l-12 2q-12 0 -16.5 -2.5t-3 -6.5t5 -8t7.5 -7l4 -3q13 -5 25 -21.5t18 -29.5l6 -13q7 -22 25 -35t38.5 -17t39.5 -4t32 2l13 2v-59v-39q0 -12 -6 -18.5t-12.5 -7.5t-18.5 -1h-128q-68 0 -116.5 48.5t-48.5 116.5v548q0 68 48.5 116.5
t116.5 48.5h548q68 0 116.5 -48.5t48.5 -116.5z" />
    <glyph glyph-name="uniEB06" unicode="&#xeb06;" 
d="M512 823q119 0 220 -59t160 -160t59 -220.5t-59 -220t-160 -159.5t-220 -59t-220 59t-160 159.5t-59 220t59 220.5t160 160t220 59zM669 525q-2 0 -6 -5t-7 -6q1 0 2 3t2.5 6.5t2.5 4.5q3 4 12 8q8 4 30 7q20 4 29 -6q-1 1 5.5 7t8.5 7t8.5 2.5t8.5 4.5l1 12
q-7 0 -10 4.5t-4 11.5q0 -1 -3 -4q0 4 -2.5 4.5t-6.5 -0.5t-5 -1q-6 2 -9 4.5t-4.5 9.5t-2.5 9t-5 5.5t-5 6.5q-1 1 -2 3t-1.5 3.5t-2 3t-3.5 1.5t-4 -3t-4 -5.5t-3 -2.5q-2 1 -3.5 0.5t-2.5 -0.5t-3 -2l-2 -2q-2 -1 -5 -1.5t-5 -1.5q9 3 0 7q-6 2 -10 1q5 3 4.5 7.5
t-4.5 7.5h3q-1 3 -5 5.5t-10 4.5t-8 3q-4 3 -19 5.5t-19 0.5q-3 -3 -2.5 -5.5t2.5 -8t2 -7.5q0 -4 -3.5 -8t-3.5 -6q0 -4 8 -9t6 -13q-2 -4 -9.5 -8.5t-9.5 -7.5q-3 -4 -1 -10t6 -10q2 -1 1.5 -2t-2 -2.5t-3 -2.5t-4.5 -2l-1 -1q-7 -3 -12 3.5t-8 14.5q-4 15 -9 18
q-13 4 -16 -1q-3 7 -24 15q-14 5 -33 2q3 1 0 9q-4 8 -11 7q2 3 2.5 9.5t0.5 7.5q2 8 7 13q1 1 4 5t5 7.5t1 3.5q20 -2 28 7q3 2 7 9t6 10q5 4 8 3.5t8.5 -3.5t7.5 -3q8 0 9 6.5t-4 11.5q7 -1 2 10q-3 4 -5 5q-7 2 -15 -3q-5 -2 1 -5q-1 1 -5.5 -5.5t-9.5 -10t-9 2.5
q-1 1 -3.5 8t-5.5 8q-4 0 -9 -9q2 5 -6 9t-14 4q11 7 -4 16q-4 2 -12 2.5t-11 -2.5q-3 -4 -3.5 -6.5t3 -4.5t6 -3t6.5 -2t5 -2q8 -6 4 -8q-1 -1 -4.5 -2t-6.5 -2.5t-3 -2.5q-2 -2 -0.5 -8t-1.5 -8q-2 3 -4.5 10t-4.5 10q4 -5 -14 -4l-6 1q-2 0 -9 -1.5t-11.5 -0.5t-7.5 5
q-2 4 0 11q0 2 2 1q-2 2 -6 5.5t-6 4.5q-26 -8 -54 -23q4 -1 7 1q3 1 7.5 3.5t5.5 2.5q20 8 24 4l3 3q8 -9 12 -14q-4 2 -17 1q-12 -4 -13 -7q4 -7 3 -11q-2 2 -6.5 6t-8.5 6.5t-9 2.5h-12q-84 -46 -134 -127q4 -4 6 -5q3 0 3.5 -4.5t1.5 -6.5t6 2q5 -5 2 -11q1 0 25 -16
q11 -9 12 -12q2 -6 -6 -10q0 1 -4.5 5t-5.5 2t0.5 -10t5.5 -7q-4 0 -5 -9.5t-1 -20.5t-1 -13l1 -1q-1 -7 3.5 -19.5t12.5 -11.5q-8 -1 11 -24q3 -5 5 -5q1 -1 6.5 -4.5t8.5 -6t6 -5.5q2 -3 5.5 -13t7.5 -14q-1 -3 5.5 -11t6.5 -13h-2l-1 -1q2 -4 9 -8t9 -8q0 -2 0.5 -6t2 -6
t4.5 -1q1 11 -14 35q-8 15 -9 17q-2 3 -3.5 9t-2.5 8q1 0 4 -1l4 -2q3 -1 4.5 -2t1.5 -2q-2 -4 1 -10t7 -10.5t9.5 -10.5t6.5 -8q4 -3 8.5 -10.5t-0.5 -7.5q5 0 11.5 -6t9.5 -12q3 -4 5 -14.5t3 -13.5q1 -4 4.5 -7.5t7.5 -5.5l9 -5l7 -4q3 -1 11 -6t12 -6q6 -3 9.5 -3t8.5 2
l7 2q9 1 17 -8.5t12 -12.5q20 -10 31 -6q-1 -1 0.5 -4.5t4.5 -8.5t5 -8.5t3 -4.5q3 -4 10.5 -9t10.5 -8q4 2 4 5q-2 -5 4 -11.5t10 -5.5q8 1 8 18q-17 -9 -28 10q0 1 -1.5 3.5t-1.5 4.5l-2 6q0 2 0.5 3.5t2.5 1.5q5 0 5.5 2t-1 7t-2.5 8q0 4 -6 11t-7 9q-3 -5 -9 -4.5
t-9 4.5l-1 -2q-1 -3 -1 -5q-7 0 -8 1q0 2 1 10t2 13q1 2 3.5 6.5t4 8.5t2 7.5t-2.5 5t-10 1.5q-11 -1 -15 -11q0 -2 -1 -6.5t-3 -6.5t-5 -4q-4 -2 -14 -1.5t-14 3.5q-7 4 -12.5 16t-5.5 21q0 6 1.5 15.5t1.5 14.5t-3 14q2 1 5.5 5t5.5 6q1 1 3 1h2q1 0 2 1t2 3l-2 2
q-2 2 -3 2q4 -2 16.5 0.5t15.5 -0.5q9 -7 13 1q0 1 -1.5 5.5t-0.5 7.5q3 -15 17 -5q2 -2 9 -3t10 -3q1 -1 3.5 -3t3.5 -2.5t3 0.5t5 4q5 -8 6 -14q7 -23 11 -25t6.5 -1.5t2.5 5.5v8q0 3 -1 7v5v10l-1 4q-8 2 -10.5 7.5t0.5 10.5t9 11l4 1l9 4.5t7 4.5q12 11 9 20q4 0 6 5
l-3 2l-4 2l-2 2q5 2 1 9q3 1 4.5 6t3.5 6q5 -7 12 -1q4 4 1 9q3 4 12 6t10 5q4 -1 4.5 1.5t0.5 7t2 6.5q2 3 8.5 5t7.5 3l10 6q1 3 0 3q10 -2 18 6q5 6 -4 11q2 4 -1.5 6t-8.5 3h7q4 0 5 1q9 6 -4 9q-9 3 -24 -7zM575 24q118 21 201 108q-2 2 -7.5 2.5t-6.5 2.5q-11 4 -14 4
q1 4 -1.5 7.5t-5 5t-7 4.5t-5.5 4q-2 1 -4.5 3.5t-4 3.5t-4.5 2.5t-4.5 1t-5.5 -0.5l-2 -1q-2 0 -4 -1l-2 -2q-2 -1 -2.5 -1.5t-0.5 -1.5q-12 10 -20 13q-3 0 -6.5 2.5t-6 4t-5.5 1t-7 -3.5q-3 -3 -3.5 -9t-0.5 -7q-4 3 0 10t1 10q-2 4 -6.5 3t-7 -2.5t-6.5 -5t-5 -4
t-4.5 -3t-4.5 -4.5q-2 -2 -4 -6.5t-3 -6.5q-1 2 -6.5 3.5t-5.5 3.5q1 -6 2.5 -20t2.5 -22q4 -17 -6 -27q-16 -14 -17 -23q-2 -13 7 -15q0 -4 -4.5 -11.5t-4.5 -12.5q0 -3 1 -9z" />
    <glyph glyph-name="uniEB0C" unicode="&#xeb0c;" 
d="M878 823q0 -149 -61 -263.5t-152 -175.5q91 -61 152 -175.5t61 -263.5h55q8 0 13 -5t5 -13v-37q0 -8 -5 -13t-13 -5h-842q-8 0 -13 5t-5 13v37q0 8 5 13t13 5h55q0 149 61 263.5t152 175.5q-91 61 -152 175.5t-61 263.5h-55q-8 0 -13 5t-5 13v37q0 8 5 13t13 5h842
q8 0 13 -5t5 -13v-37q0 -8 -5 -13t-13 -5h-55zM573 418q44 17 85 53t74 87t53 120.5t20 144.5h-586q0 -75 20 -144.5t53 -120.5t74 -87t85 -53q11 -4 17.5 -13.5t6.5 -20.5t-6.5 -20.5t-17.5 -13.5q-78 -29 -139 -112h400q-61 83 -139 112q-11 4 -17.5 13.5t-6.5 20.5
t6.5 20.5t17.5 13.5z" />
    <glyph glyph-name="uniEB0D" unicode="&#xeb0d;" 
d="M878 823q0 -149 -61 -263.5t-152 -175.5q91 -61 152 -175.5t61 -263.5h55q8 0 13 -5t5 -13v-37q0 -8 -5 -13t-13 -5h-842q-8 0 -13 5t-5 13v37q0 8 5 13t13 5h55q0 149 61 263.5t152 175.5q-91 61 -152 175.5t-61 263.5h-55q-8 0 -13 5t-5 13v37q0 8 5 13t13 5h842
q8 0 13 -5t5 -13v-37q0 -8 -5 -13t-13 -5h-55zM573 418q44 17 85 53t74 87t53 120.5t20 144.5h-586q0 -75 20 -144.5t53 -120.5t74 -87t85 -53q11 -4 17.5 -13.5t6.5 -20.5t-6.5 -20.5t-17.5 -13.5q-44 -17 -85 -53t-74 -87t-53 -120.5t-20 -144.5h586q0 75 -20 144.5
t-53 120.5t-74 87t-85 53q-11 4 -17.5 13.5t-6.5 20.5t6.5 20.5t17.5 13.5z" />
    <glyph glyph-name="uniEB16" unicode="&#xeb16;" 
d="M987 390q0 -95 -34 -180l-11 -28l-106 -19q-13 -47 -52 -77.5t-89 -30.5v-18q0 -8 -5 -13.5t-13 -5.5h-37q-8 0 -13 5.5t-5 13.5v329q0 8 5 13t13 5h37q8 0 13 -5t5 -13v-19q40 0 74 -20t53 -54l39 6q17 55 17 111q0 84 -50.5 159t-135.5 119.5t-180 44.5t-180 -44.5
t-135.5 -119.5t-50.5 -159q0 -56 17 -111l39 -6q19 34 53 54t74 20v19q0 8 5 13t13 5h37q8 0 13 -5t5 -13v-329q0 -8 -5 -13.5t-13 -5.5h-37q-8 0 -13 5.5t-5 13.5v18q-50 0 -89 30.5t-52 77.5l-106 19l-11 28q-34 85 -34 180q0 86 38 166t102 138.5t152 93.5t183 35
t183 -35t152 -93.5t102 -138.5t38 -166z" />
    <glyph glyph-name="uniEB17" unicode="&#xeb17;" horiz-adv-x="1025" 
d="M512 -55q-15 0 -25 10l-357 344q-5 5 -15 15.5t-32 37.5t-39 55.5t-30.5 69t-13.5 78.5q0 126 72.5 197t200.5 71q36 0 72.5 -12.5t68.5 -33t54.5 -39t43.5 -39.5q20 21 43 39.5t55 39t68.5 33t72.5 12.5q128 0 200.5 -71t72.5 -197t-131 -257l-356 -343q-10 -10 -25 -10
z" />
    <glyph glyph-name="uniEB19" unicode="&#xeb19;" horiz-adv-x="1025" 
d="M951 555q0 47 -12.5 82.5t-31.5 56t-46.5 34t-53.5 18t-56 4.5t-64 -14.5t-63 -37t-49.5 -41.5t-34.5 -35q-10 -12 -28 -12t-28 12q-14 16 -34.5 35t-49.5 41.5t-63 37t-64 14.5t-56 -4.5t-53.5 -18t-46.5 -34t-31.5 -56t-12.5 -82.5q0 -96 107 -202l332 -320l331 319
q108 107 108 203zM1024 555q0 -126 -131 -257l-356 -343q-10 -10 -25 -10t-25 10l-357 344q-5 5 -15 15.5t-32 37.5t-39 55.5t-30.5 69t-13.5 78.5q0 126 72.5 197t200.5 71q36 0 72.5 -12.5t68.5 -33t54.5 -39t43.5 -39.5q20 21 43 39.5t55 39t68.5 33t72.5 12.5
q128 0 200.5 -71t72.5 -197z" />
    <glyph glyph-name="uniEB1B" unicode="&#xeb1b;" 
d="M841 329v-274q0 -15 -11 -26t-25 -11h-220v220h-146v-220h-220q-14 0 -25 11t-11 26v274v2v2l329 270l329 -270v-4zM969 369l-36 -43q-4 -5 -12 -6h-2q-7 0 -12 4l-395 330l-395 -330q-7 -5 -14 -4t-12 6l-35 43q-5 5 -4.5 13t6.5 12l411 343q18 14 43 14t44 -14
l139 -117v111q0 8 5 13.5t13 5.5h110q8 0 13 -5.5t5 -13.5v-233l125 -104q6 -4 6.5 -12t-3.5 -14v1z" />
    <glyph glyph-name="uniEB1D" unicode="&#xeb1d;" 
d="M933 -18q8 0 13 -5.5t5 -13.5v-73q0 -8 -5 -13t-13 -5h-842q-8 0 -13 5t-5 13v73q0 8 5 13.5t13 5.5h842zM147 18q2 32 9.5 61.5t17 54t26.5 50t31 43.5t36.5 39.5t37.5 34.5t40.5 31.5t38 27t37.5 24.5q-25 16 -37.5 24.5t-38 27t-40.5 31.5t-37.5 34.5t-36.5 40
t-31 43.5t-26.5 49.5t-17 54t-9.5 61.5h730q-2 -32 -9.5 -61.5t-17 -54t-26.5 -49.5t-30.5 -43.5t-36.5 -40t-38 -34.5t-40.5 -31.5t-38 -27t-37.5 -24.5q25 -16 37.5 -24.5t38 -27t40.5 -31.5t38 -34.5t36.5 -39.5t30.5 -43.5t26.5 -50t17 -54t9.5 -61.5h-730zM933 896
q8 0 13 -5t5 -13v-73q0 -8 -5 -13.5t-13 -5.5h-842q-8 0 -13 5.5t-5 13.5v73q0 8 5 13t13 5h842z" />
    <glyph glyph-name="uniEB1E" unicode="&#xeb1e;" 
d="M878 823q0 -149 -61 -263.5t-152 -175.5q91 -61 152 -175.5t61 -263.5h55q8 0 13 -5t5 -13v-37q0 -8 -5 -13t-13 -5h-842q-8 0 -13 5t-5 13v37q0 8 5 13t13 5h55q0 149 61 263.5t152 175.5q-91 61 -152 175.5t-61 263.5h-55q-8 0 -13 5t-5 13v37q0 8 5 13t13 5h842
q8 0 13 -5t5 -13v-37q0 -8 -5 -13t-13 -5h-55zM805 823h-586q0 -38 6 -73h574q5 35 5 73h1zM805 -55q0 74 -19.5 142.5t-52 119t-72.5 87t-83 53.5h-132q-43 -17 -83 -53.5t-72.5 -87t-52 -119t-19.5 -142.5h585h1z" />
    <glyph glyph-name="uniEB1F" unicode="&#xeb1f;" 
d="M878 823q0 -149 -61 -263.5t-152 -175.5q91 -61 152 -175.5t61 -263.5h55q8 0 13 -5t5 -13v-37q0 -8 -5 -13t-13 -5h-842q-8 0 -13 5t-5 13v37q0 8 5 13t13 5h55q0 149 61 263.5t152 175.5q-91 61 -152 175.5t-61 263.5h-55q-8 0 -13 5t-5 13v37q0 8 5 13t13 5h842
q8 0 13 -5t5 -13v-37q0 -8 -5 -13t-13 -5h-55zM805 823h-586q0 -118 49 -220h488q49 102 49 220zM772 128q-31 81 -83 138t-111 81h-132q-59 -24 -111 -81t-83 -138h520z" />
    <glyph glyph-name="uniEB26" unicode="&#xeb26;" horiz-adv-x="1098" 
d="M366 567q0 -46 -32 -78t-78 -32t-78 32t-32 77.5t32 78t78 32t78 -32t32 -77.5zM951 347v-256h-805v110l183 183l92 -91l292 292zM1006 750h-915q-7 0 -12.5 -5.5t-5.5 -13.5v-694q0 -8 5.5 -13.5t12.5 -5.5h915q7 0 12.5 5.5t5.5 13.5v694q0 8 -5.5 13.5t-12.5 5.5z
M1097 731v-694q0 -38 -27 -65t-64 -27h-915q-37 0 -64 27t-27 65v694q0 38 27 65t64 27h915q37 0 64 -27t27 -65z" />
    <glyph glyph-name="uniEB27" unicode="&#xeb27;" 
d="M658 347h180q0 2 -1 5t-2 4l-121 284h-404l-121 -284q-1 -1 -2 -4t-1 -5h180l54 -109h183zM951 330v-275q0 -15 -11 -26t-26 -11h-804q-15 0 -26 11t-11 26v275q0 36 14 71l136 315q6 14 21 24t30 10h476q14 0 29.5 -10t20.5 -24l136 -315q15 -35 15 -71z" />
    <glyph glyph-name="uniEB2D" unicode="&#xeb2d;" 
d="M851 81v370h-77q12 -36 12 -74q0 -72 -36.5 -133t-99.5 -96.5t-137 -35.5q-113 0 -193 77.5t-80 187.5q0 39 11 75h-80v-371q0 -15 10 -25t25 -10h611q14 0 24 10t10 25zM689 386q0 71 -51.5 120.5t-124.5 50.5q-73 0 -124.5 -50.5t-51.5 -121t51.5 -120.5t124.5 -50
t124.5 50t51.5 121zM851 591v95q0 16 -11 27.5t-28 11.5h-99q-17 0 -28.5 -11.5t-11.5 -27.5v-95q0 -16 11.5 -27.5t28.5 -11.5h99q17 0 28 11.5t11 27.5zM951 710v-652q0 -47 -33 -80t-80 -33h-652q-47 0 -80 33t-33 80v652q0 47 33 80t80 33h652q47 0 80 -33t33 -80z" />
    <glyph glyph-name="uniEB2E" unicode="&#xeb2e;" 
d="M409 -21q-81 20 -149 65.5t-113 108.5q-79 -171 -10 -227q15 -12 49 -14t73 5.5t80.5 24t69.5 37.5zM396 454h258q0 62 -35 96.5t-96 34.5q-59 0 -93 -35.5t-34 -95.5zM985 668h-20q15 58 13 97t-14 63t-36 32.5t-53.5 6t-65.5 -15t-73.5 -32t-76.5 -45.5
q74 -21 136.5 -64.5t105.5 -102t62.5 -132.5t8.5 -150h-574q0 -34 6 -60t19.5 -48.5t39.5 -34.5t64 -12q50 0 81.5 25t41.5 70h309q-41 -132 -161 -215.5t-273 -83.5q-47 0 -91 8q-20 -23 -86 -53.5t-141.5 -44.5t-125.5 20q-44 34 -56.5 90.5t4 122.5t50 138.5t82 141.5
t99 129t101.5 104.5t89 64.5v14q-68 -22 -147 -79t-137.5 -118t-90.5 -112q2 61 19 115t45.5 96.5t67.5 77.5t84.5 57.5t96 37.5t103 16.5t105.5 -4.5q177 106 287 108h4q33 0 59 -10q46 -17 56.5 -76t-17.5 -142z" />
    <glyph glyph-name="uniEB33" unicode="&#xeb33;" horiz-adv-x="1171" 
d="M1029 455q63 -26 102 -83t39 -127q0 -94 -67.5 -160.5t-162.5 -66.5q-2 0 -6.5 0.5t-6.5 0.5h-695q-97 6 -164.5 72t-67.5 160q0 63 31.5 116t83.5 84q-6 22 -6 47q0 65 46.5 111.5t113.5 46.5q54 0 98 -33q43 88 127.5 141.5t186.5 53.5q95 0 175 -46t126.5 -124.5
t46.5 -172.5v-10v-10zM268 303q0 -70 48 -110.5t118 -40.5q79 0 138 57q-10 11 -28 32t-24 29q-39 -37 -83 -37q-31 0 -53 19t-22 50q0 30 22 49.5t52 19.5q25 0 48.5 -12t42 -31.5t37 -43t39.5 -47t44 -43t55 -31.5t70 -12q69 0 116.5 41t47.5 109q0 69 -48 109.5
t-118 40.5q-82 0 -138 -55q8 -9 17 -19.5t20 -23t16 -19.5q38 37 81 37q30 0 53 -19t23 -48q0 -33 -21 -52.5t-54 -19.5q-25 0 -47.5 12t-41 31.5t-37.5 43t-39.5 47t-44 42.5t-55.5 31.5t-68 11.5q-69 0 -117.5 -40t-48.5 -108z" />
    <glyph glyph-name="uniEB3F" unicode="&#xeb3f;" 
d="M366 457h292v110q0 60 -42.5 103t-103.5 43t-103.5 -43t-42.5 -103v-110zM841 402v-329q0 -23 -16 -39t-39 -16h-548q-23 0 -39 16t-16 39v329q0 23 16 39t39 16h18v110q0 105 75.5 180.5t180.5 75.5t180.5 -75.5t75.5 -180.5v-110h18q23 0 39 -16t16 -39z" />
    <glyph glyph-name="uniEB43" unicode="&#xeb43;" 
d="M731 494q0 15 -10.5 25.5t-25.5 10.5q-98 0 -181.5 -28t-148.5 -76.5t-135 -125.5q-10 -12 -10 -26q0 -15 10.5 -25.5t25.5 -10.5q14 0 26 10q15 14 42 41l38 38q79 71 154 100.5t179 29.5q15 0 26 11t11 26h-1zM1024 607q0 -54 -11 -110q-27 -128 -106 -219t-204 -153
q-122 -62 -250 -62q-85 0 -164 27q-8 3 -50 24t-55 21q-9 0 -22.5 -18.5t-26 -40t-30 -40t-34.5 -18.5t-29 6.5t-17.5 14t-15.5 23.5q-1 2 -3.5 6t-3 6t-1.5 5.5t-1 7.5q0 20 17.5 42t39 37.5t39 32t17.5 27.5q0 2 -8 21.5t-9 25.5q-5 29 -5 60q0 65 25 125t68 105.5
t97 79.5t117 55q31 10 82.5 14t102.5 5t102 3.5t93.5 14t64.5 32.5l17 17l17 16l16 11l20 9l25 3q23 0 41 -26.5t27 -64t13.5 -71t4.5 -54.5z" />
    <glyph glyph-name="uniEB56" unicode="&#xeb56;" 
d="M293 896q7 0 12.5 -5.5t5.5 -12.5v-841q0 -12 -10 -16l-274 -147q-4 -2 -9 -2q-7 0 -12.5 5.5t-5.5 12.5v841q0 12 10 16l274 147q4 2 9 2zM1006 896q7 0 12.5 -5.5t5.5 -12.5v-841q0 -12 -10 -16l-274 -147q-4 -2 -9 -2q-7 0 -12.5 5.5t-5.5 12.5v841q0 12 10 16
l274 147q4 2 9 2zM366 896q4 0 8 -2l292 -146q11 -6 11 -17v-841q0 -7 -5.5 -12.5t-13.5 -5.5q-4 0 -8 2l-292 146q-11 6 -11 17v841q0 7 5.5 12.5t13.5 5.5z" />
    <glyph glyph-name="uniEB58" unicode="&#xeb58;" horiz-adv-x="1170" 
d="M1154 889q16 -11 16 -30v-804q0 -11 -6.5 -20.5t-16.5 -13.5l-366 -146q-13 -6 -27 0l-352 141l-352 -141q-5 -3 -13 -3q-11 0 -21 7q-16 11 -16 30v804q0 11 6.5 20.5t16.5 13.5l365 146q14 6 28 0l352 -141l351 141q19 7 35 -4zM420 812v-725l329 -131v725zM73 688
v-725l311 124v725zM1097 80v725l-311 -124v-725z" />
    <glyph glyph-name="uniEB59" unicode="&#xeb59;" 
d="M512 274q38 0 73 9v-374q0 -15 -11 -26t-25 -11h-74q-14 0 -25 11t-11 26v374q35 -9 73 -9zM512 896q121 0 207 -85.5t86 -207t-86 -207t-207 -85.5t-207 85.5t-86 207t86 207t207 85.5zM512 768q8 0 13 5t5 13t-5 13.5t-13 5.5q-83 0 -142 -59t-59 -143q0 -8 5 -13
t13 -5t13 5t5 13q0 68 48.5 116.5t116.5 48.5z" />
    <glyph glyph-name="uniEB75" unicode="&#xeb75;" 
d="M830 300q18 -17 8 -39q-10 -23 -34 -23h-218l115 -272q6 -14 0 -28t-20 -20l-101 -43q-14 -6 -28 0t-20 19l-109 259l-178 -179q-11 -11 -26 -11q-7 0 -14 3q-22 10 -22 34v859q0 24 22 34q7 3 14 3q16 0 26 -11z" />
    <glyph glyph-name="uniEB76" unicode="&#xeb76;" 
d="M951 768v-640q0 -29 -19.5 -51t-49 -34.5t-59 -18.5t-55.5 -6t-55.5 6t-59 18.5t-49 35t-19.5 51t19.5 50.5t49 34.5t59 18.5t55.5 6q60 0 110 -23v307l-439 -135v-405q0 -29 -19.5 -51t-49 -34.5t-59 -18.5t-55.5 -6t-55.5 6t-59 18t-49 34.5t-19.5 51t19.5 51t49 34.5
t59 18t55.5 6q60 0 110 -22v553q0 17 10.5 31.5t28.5 20.5l475 146q7 3 16 3q23 0 39 -16t16 -39z" />
    <glyph glyph-name="uniEB7F" unicode="&#xeb7f;" 
d="M841 494v-73q0 -127 -84 -220.5t-208 -106.5v-76h146q15 0 26 -10.5t10.5 -25.5t-11 -26t-25.5 -11h-366q-15 0 -26 11t-10.5 26t11 25.5t25.5 10.5h146v76q-124 13 -208 106.5t-84 220.5v73q0 15 11 25.5t25.5 10.5t25.5 -10.5t11 -25.5v-73q0 -106 75 -181.5t181 -75
t181 75.5t75 181v73q0 15 11 25.5t25.5 10.5t25.5 -10.5t11 -25.5zM695 713v-292q0 -76 -54 -129.5t-129 -53.5t-129 53.5t-54 129.5v292q0 76 54 129.5t129 53.5t129 -53.5t54 -129.5z" />
    <glyph glyph-name="uniEB80" unicode="&#xeb80;" 
d="M265 356l-58 -58q-24 59 -24 123v73q0 15 11 25.5t25.5 10.5t25.5 -10.5t11 -25.5v-73q0 -31 9 -65zM901 700l-206 -206v-73q0 -76 -54 -129.5t-129 -53.5q-31 0 -62 11l-55 -55q55 -29 117 -29q106 0 181 75t75 181v73q0 15 11 25.5t25.5 10.5t25.5 -10.5t11 -25.5v-73
q0 -127 -84 -220.5t-208 -106.5v-76h146q15 0 26 -10.5t10.5 -25.5t-11 -26t-25.5 -11h-366q-15 0 -26 11t-10.5 26t11 25.5t25.5 10.5h146v76q-71 7 -134 46l-145 -145q-6 -6 -13.5 -6t-12.5 6l-47 47q-6 5 -6 12.5t6 13.5l705 705q6 6 13.5 6t12.5 -6l47 -47q6 -5 6 -12.5
t-6 -13.5zM684 775l-355 -354v292q0 76 54 129.5t129 53.5q58 0 105.5 -33.5t66.5 -87.5z" />
    <glyph glyph-name="uniEB82" unicode="&#xeb82;" 
d="M768 347v74q0 14 -11 25t-25 11h-439q-15 0 -26 -11t-11 -25v-74q0 -14 11 -25t26 -11h439q14 0 25 11t11 25zM951 384q0 -119 -59 -220t-160 -160t-220 -59t-220 59t-160 160t-59 220t59 220t160 160t220 59t220 -59t160 -160t59 -220z" />
    <glyph glyph-name="uniEB86" unicode="&#xeb86;" 
d="M951 786v-804q0 -15 -11 -26t-26 -11h-292q-15 0 -26 11t-11 26v804q0 15 11 26t26 11h292q15 0 26 -11t11 -26zM439 786v-804q0 -15 -11 -26t-26 -11h-292q-15 0 -26 11t-11 26v804q0 15 11 26t26 11h292q15 0 26 -11t11 -26z" />
    <glyph glyph-name="uniEB87" unicode="&#xeb87;" 
d="M482 626q0 -34 -10.5 -64.5t-36 -53t-59.5 -22.5q-44 0 -79.5 33t-52.5 77.5t-17 86.5q0 34 11 64.5t36 53t60 22.5q44 0 79 -33t52 -77t17 -87zM287 350q0 -45 -24 -79t-68 -34t-81 32t-57 76.5t-20 86.5q0 46 24 80t68 34q43 0 80.5 -32t57.5 -76.5t20 -87.5zM512 366
q67 0 145.5 -56t131 -135.5t52.5 -145.5q0 -26 -9.5 -43.5t-27.5 -26t-37 -11.5t-44 -3q-38 0 -106.5 26t-104.5 26q-38 0 -110 -25.5t-115 -25.5q-104 0 -104 83q0 49 32 109.5t79.5 110t107 83.5t110.5 34zM649 486q-35 0 -60.5 22.5t-36 53t-10.5 64.5q0 43 17 87t52 77
t79 33q35 0 60 -22.5t36 -53t11 -64.5q0 -42 -17 -86.5t-52.5 -77.5t-78.5 -33zM895 546q44 0 68 -34t24 -80q0 -42 -20 -86.5t-57 -76.5t-81 -32t-68 34t-24 79q0 43 20 87.5t57.5 76.5t80.5 32z" />
    <glyph glyph-name="uniEB8B" unicode="&#xeb8b;" 
d="M914 187q0 -15 -5.5 -40t-11.5 -39q-12 -29 -70 -61q-54 -29 -106 -29q-16 0 -30.5 2t-33 7.5t-27 8.5t-31.5 11.5t-28 10.5q-56 20 -100 47q-73 45 -151 123t-123 151q-28 44 -48 100q-1 6 -10 28.5t-12 31.5t-8 27.5t-7 33t-2 29.5q0 53 29 106q32 58 60 70
q15 6 39.5 12t40.5 6q8 0 12 -2q10 -3 30 -43q6 -11 17 -31t20 -36.5t18 -30.5q2 -2 10 -14t12 -20.5t4 -16.5q0 -11 -16 -28.5t-35.5 -31.5t-35.5 -30t-16 -26q0 -6 3 -13.5t5 -11.5t8 -13.5t6 -10.5q44 -79 99.5 -135t134.5 -99q1 -1 10.5 -7t13.5 -8t12 -4.5t13 -2.5
q10 0 26 16t30.5 35t31.5 35.5t28 16.5q8 0 16.5 -4t20.5 -12.5t14 -9.5q15 -9 31 -18t36 -20t31 -17q40 -20 43 -30q2 -4 2 -12v-1z" />
    <glyph glyph-name="uniEB96" unicode="&#xeb96;" 
d="M912 105q0 -67 -45 -112.5t-112 -45.5q-77 0 -134 58l-444 443q-65 66 -65 155q0 91 63 154.5t154 63.5q90 0 156 -65l345 -346q6 -6 6 -13q0 -9 -17.5 -26.5t-26.5 -17.5q-7 0 -13 6l-346 347q-45 44 -104 44q-60 0 -102 -43t-42 -103t44 -104l443 -444q36 -36 83 -36
q37 0 61 24t24 61q0 47 -36 83l-332 332q-15 13 -35 13q-16 0 -27 -10.5t-11 -27.5q0 -18 14 -34l235 -234q5 -6 5 -13q0 -9 -17.5 -26.5t-26.5 -17.5q-7 0 -13 6l-234 234q-36 35 -36 85q0 47 32.5 79.5t79.5 32.5q50 0 85 -36l332 -332q57 -56 57 -134z" />
    <glyph glyph-name="uniEB97" unicode="&#xeb97;" 
d="M1008 890q19 -14 15 -37l-146 -878q-3 -16 -18 -25q-8 -5 -18 -5q-6 0 -14 3l-258 106l-139 -169q-10 -13 -28 -13q-7 0 -12 2q-11 4 -17.5 13.5t-6.5 21.5v199l493 605l-610 -528l-226 92q-21 8 -23 32q-1 22 18 33l951 549q9 5 18 5q12 0 21 -6z" />
    <glyph glyph-name="uniEB9B" unicode="&#xeb9b;" 
d="M914 475v-109q0 -23 -16 -39t-39 -16h-237v-238q0 -23 -16 -39t-39 -16h-110q-23 0 -39 16t-16 39v238h-237q-23 0 -39 16t-16 39v109q0 23 16 39t39 16h237v238q0 23 16 39t39 16h110q23 0 39 -16t16 -39v-238h237q23 0 39 -16t16 -39z" />
    <glyph glyph-name="uniEB9F" unicode="&#xeb9f;" 
d="M951 384q0 -89 -35 -170t-94 -140t-140 -94t-170 -35t-170 35t-140 93.5t-94 140t-35 170.5q0 104 46 196t130 154q24 19 54 15t48 -29q18 -24 14 -54t-28 -48q-56 -43 -87 -104t-31 -130q0 -59 23.5 -113t62.5 -93.5t93 -62.5t113.5 -23t113.5 23t93.5 62.5t62.5 93.5
t23 113q0 69 -30.5 130t-86.5 104q-24 18 -28 48t14 54q18 25 48 29t54 -15q84 -62 130 -154t46 -196zM585 823v-366q0 -30 -21.5 -51.5t-51.5 -21.5t-51.5 21.5t-21.5 51.5v366q0 30 21.5 51.5t51.5 21.5t51.5 -21.5t21.5 -51.5z" />
    <glyph glyph-name="uniEBA3" unicode="&#xeba3;" 
d="M805 214q0 7 -2 9q-1 5 -21.5 17.5t-50.5 28.5l-30 16q-3 2 -11 7.5t-14.5 8.5t-12.5 3q-10 0 -26.5 -18.5t-32.5 -37.5t-25 -19q-4 0 -9.5 2t-9 4t-9.5 5.5t-8 4.5q-57 32 -97.5 72.5t-72.5 97.5q-1 1 -4.5 7.5t-5.5 10t-4 9t-2 9.5q0 7 12 19t26 22t25.5 22.5
t11.5 20.5q0 6 -3 12.5t-8.5 14.5t-7.5 10q-1 4 -8 17t-14.5 26t-15 27t-14 23t-9.5 10.5t-9 0.5q-28 0 -58 -12q-26 -12 -45.5 -54t-19.5 -75q0 -9 1.5 -19t2.5 -17.5t5 -19t6 -16.5t7 -19t6 -17q35 -94 124 -183.5t183 -123.5q4 -1 17.5 -6t18.5 -7.5t17 -6t19 -5t17 -3
t20 -1.5q32 0 74 19.5t54 46.5q13 30 13 57zM951 658v-548q0 -68 -48.5 -116.5t-116.5 -48.5h-548q-68 0 -116.5 48.5t-48.5 116.5v548q0 68 48.5 116.5t116.5 48.5h548q68 0 116.5 -48.5t48.5 -116.5z" />
    <glyph glyph-name="uniEBAB" unicode="&#xebab;" 
d="M901 366l-759 -421q-13 -8 -22.5 -2t-9.5 20v842q0 14 9.5 20t22.5 -2l759 -421q13 -8 13 -18t-13 -18z" />
    <glyph glyph-name="uniEBB1" unicode="&#xebb1;" 
d="M859 640q0 23 -16 39t-38.5 16t-38.5 -16t-16 -39t16 -39t38.5 -16t38.5 16t16 39zM987 805q0 -143 -43 -246.5t-145 -205.5q-46 -46 -111 -101l-11 -217q-2 -9 -10 -14l-219 -128q-4 -3 -9 -3q-7 0 -13 5l-37 37q-7 8 -4 18l48 158l-160 161l-158 -49q-2 -1 -5 -1
q-8 0 -13 6l-37 36q-10 11 -3 22l128 220q6 8 15 9l217 11q55 66 100 112q108 107 205 147.5t246 40.5q8 0 13.5 -5.5t5.5 -12.5z" />
    <glyph glyph-name="uniEBBC" unicode="&#xebbc;" 
d="M478 228l-9 -210l-1 -13l-240 17q-21 1 -38.5 17.5t-26.5 37.5q-6 16 -8 32t2 37t6.5 31.5t12.5 36.5t11 30q44 -7 291 -16zM257 563l102 -217l-84 53q-36 -41 -63.5 -82.5t-41 -71.5t-22.5 -54t-11 -36l-2 -12l-109 204q-9 15 -10 32t3 27l5 10q20 36 65 107l-80 50z
M960 267l-107 -205q-7 -16 -21 -26t-25 -12l-10 -2q-41 -4 -126 -7l5 -94l-132 210l121 207l4 -99q97 -9 161.5 -3t97.5 19zM511 795q-26 -36 -151 -248l-181 107l-11 7l129 203q11 18 34 26t46 5q13 -1 27 -6.5t24 -12t24 -19t20.5 -19.5t20.5 -22.5t18 -20.5zM886 620
l121 -207q10 -22 7 -44t-16 -42q-7 -12 -18.5 -21.5t-22 -16t-27.5 -12.5t-26.5 -9t-29.5 -8t-27 -7q-19 41 -151 249l179 112zM804 749l81 48l-126 -214l-239 12l86 49q-19 51 -42.5 95t-43 70.5t-37 45.5t-26.5 27l-10 7h231q18 1 33.5 -6.5t22.5 -16.5l6 -8
q22 -35 64 -109z" />
    <glyph glyph-name="uniEBBF" unicode="&#xebbf;" 
d="M937 293q0 -3 -1 -4q-37 -154 -153.5 -249t-272.5 -95q-84 0 -162 31.5t-139 89.5l-74 -73q-10 -11 -25 -11t-26 10.5t-11 25.5v256q0 15 11 26t26 11h256q15 0 25.5 -11t10.5 -26t-11 -25l-78 -79q41 -37 92.5 -58t106.5 -21q77 0 143 37.5t106 102.5q6 10 30 67
q5 13 18 13h109q8 0 13.5 -5.5t5.5 -12.5zM951 750v-256q0 -15 -11 -26t-26 -11h-256q-15 0 -25.5 11t-10.5 26t11 25l78 79q-84 79 -199 79q-77 0 -143 -37.5t-106 -102.5q-6 -10 -30 -67q-5 -13 -18 -13h-113q-8 0 -13.5 5.5t-5.5 12.5v4q38 154 155 249t274 95
q83 0 162 -32t140 -89l75 73q10 11 25 11t26 -10.5t11 -25.5z" />
    <glyph glyph-name="uniEBC0" unicode="&#xebc0;" 
d="M951 750v-256q0 -15 -11 -26t-26 -11h-256q-24 0 -33 23q-10 22 8 39l78 79q-84 78 -199 78q-59 0 -113 -23t-93.5 -62.5t-62.5 -93.5t-23 -113t23 -113t62.5 -93.5t93.5 -62.5t113 -23q68 0 128.5 29.5t102.5 83.5q4 6 13 7q8 0 14 -5l79 -79q5 -4 5 -11.5t-4 -13.5
q-63 -75 -151.5 -116.5t-186.5 -41.5q-89 0 -170 35t-140 94t-94 140t-35 170t35 170.5t93.5 140t140 93.5t170.5 35q84 0 162.5 -32t139.5 -89l75 73q16 18 40 8q22 -9 22 -33z" />
    <glyph glyph-name="uniEBC4" unicode="&#xebc4;" 
d="M951 384q0 -89 -35 -170t-93.5 -140t-140 -94t-170.5 -35q-98 0 -186.5 41.5t-151.5 116.5q-4 6 -3.5 13t4.5 12l79 79q5 5 14 5q9 -1 13 -7q42 -54 102.5 -84t128.5 -30q59 0 113 23.5t93.5 63t62.5 93t23 113t-23 113.5t-62.5 93.5t-93.5 62.5t-113 23
q-56 0 -107.5 -20t-91.5 -58l78 -79q18 -17 8 -39q-9 -23 -33 -23h-256q-15 0 -26 11t-11 26v256q0 24 23 33q22 10 39 -8l75 -73q61 57 139.5 89t162.5 32q89 0 170 -35t140 -94t94 -140t35 -170z" />
    <glyph glyph-name="uniEBC6" unicode="&#xebc6;" 
d="M154 435q-4 11 -4 30q0 11 6 28t14 26q-1 12 4 30t13 25q0 79 53 164.5t124 119.5q79 38 185 38q76 0 152 -31q28 -12 51.5 -27.5t40.5 -32.5t31.5 -39t24 -42t18.5 -48.5t14.5 -51t12.5 -55.5l1 -3q31 -48 31 -86q0 -8 -5 -23t-5 -22l1 -1l2 -4l1 -1q44 -66 69 -123
t25 -119q0 -25 -11 -57.5t-32 -32.5q-5 0 -11 4.5t-11 10t-11 15t-9 15.5t-7.5 14.5t-5.5 9.5q0 1 -1 1l-3 -2q-34 -88 -76 -128q12 -11 35.5 -21.5t39.5 -23.5t20 -38q-1 -2 -2 -9t-4 -10q-37 -55 -173 -55q-30 0 -63 5t-56 11t-60 17q-8 3 -13 4q-8 3 -26 3t-23 1
q-23 -26 -72.5 -37.5t-96.5 -11.5q-20 0 -39.5 1t-53 5t-57.5 11.5t-42.5 23t-18.5 36.5q0 23 5.5 34t23.5 28q6 1 23 7.5t28 6.5q2 0 8 1q1 2 1 3l-1 1q-27 7 -61.5 61t-41.5 89l-3 2q-2 0 -7 -12q-10 -23 -31 -42t-44 -22h-1q-2 0 -3.5 3t-2.5 3q-13 31 -13 57
q0 157 144 267z" />
    <glyph glyph-name="uniEBC7" unicode="&#xebc7;" 
d="M329 238v-73h-73v73h73zM329 677v-74h-73v74h73zM768 677v-74h-73v74h73zM183 92h219v219h-219v-219zM183 530h219v220h-219v-220zM622 530h219v220h-219v-220zM475 384v-366h-365v366h365zM768 91v-73h-73v73h73zM914 91v-73h-73v73h73zM914 384v-219h-219v73h-73v-220
h-73v366h219v-73h73v73h73zM475 823v-366h-365v366h365zM914 823v-366h-365v366h365z" />
    <glyph glyph-name="uniEBD8" unicode="&#xebd8;" 
d="M750 384q0 -15 -11 -26l-311 -311q-11 -10 -26 -10t-25.5 10.5t-10.5 25.5v165h-256q-15 0 -26 10.5t-11 25.5v220q0 15 11 25.5t26 10.5h256v165q0 15 10.5 26t25.5 10.5t26 -10.5l311 -311q11 -11 11 -26zM951 585v-402q0 -68 -48.5 -116.5t-116.5 -48.5h-183
q-7 0 -12.5 5.5t-5.5 13.5q0 2 -0.5 11t0 15t1.5 13.5t5.5 11t11.5 3.5h183q38 0 65 27t27 65v402q0 38 -27 65t-65 27h-178h-7l-6 2l-5 3l-4 5l-1 8q0 2 -0.5 11t-0.5 15t1.5 13.5t6 11.5t11.5 4h183q68 0 116.5 -48.5t48.5 -116.5z" />
    <glyph glyph-name="uniEBD9" unicode="&#xebd9;" 
d="M402 73q0 -2 0.5 -11t0.5 -15t-1.5 -13.5t-6 -11.5t-11.5 -4h-183q-68 0 -116 48.5t-48 116.5v402q0 68 48 116.5t116 48.5h183q8 0 13 -5.5t5 -13.5q0 -2 1 -11t0.5 -15t-2 -13.5t-5.5 -11t-12 -3.5h-183q-37 0 -64 -27t-27 -65v-402q0 -38 27 -65t64 -27h179h6l7 -2
l4 -3l4 -5l2 -8h-1zM933 384q0 -15 -11 -26l-311 -311q-11 -10 -26 -10t-25.5 10.5t-10.5 25.5v165h-256q-15 0 -26 10.5t-11 25.5v220q0 15 11 25.5t26 10.5h256v165q0 15 10.5 26t25.5 10.5t26 -10.5l311 -311q11 -11 11 -26z" />
    <glyph glyph-name="uniEBDD" unicode="&#xebdd;" 
d="M542 386q0 -15 -9.5 -26t-23.5 -11q-15 0 -25.5 9.5t-10.5 23.5q0 15 9.5 26t24 11t25 -9.5t10.5 -23.5zM551 353l200 332q-5 -5 -38.5 -36t-72 -66.5t-78 -72.5t-66.5 -63t-29 -30l-200 -331q4 4 38.5 35.5t72 66.5t77.5 72.5t67 63.5t29 29zM921 384q0 -115 -60 -212
q-2 1 -10 6t-15 9.5t-9 4.5q-8 0 -8 -7q0 -6 34 -26q-42 -64 -105 -108.5t-138 -63.5l-9 39q-1 5 -9 5q-3 0 -4.5 -3t-1.5 -5l9 -39q-41 -9 -83 -9q-114 0 -213 60q1 2 8 12.5t12.5 19t5.5 10.5q0 8 -8 8q-3 0 -9.5 -8.5t-13 -20t-7.5 -13.5q-65 43 -110 107.5t-63 139.5
l40 9q5 2 5 8q0 3 -3 5t-6 1l-39 -8q-8 41 -8 79q0 118 63 217q1 -1 10.5 -7.5t17 -11t9.5 -4.5q8 0 8 7q0 4 -7 9t-19 12l-11 7q44 64 108 108t139 61l9 -38q1 -6 8 -6q3 0 5 3.5t1 6.5l-9 37q41 8 77 8q117 0 217 -63q-23 -32 -23 -37q0 -7 7 -7t28 36q63 -42 107 -105.5
t61 -138.5l-32 -6q-6 -2 -6 -10q0 -2 3.5 -4t5.5 -1l33 7q8 -41 8 -80zM969 384q0 93 -36 177.5t-97.5 146t-146 97.5t-177.5 36t-177.5 -36t-146 -97.5t-97.5 -146t-36 -177.5t36 -177.5t97.5 -146t146 -97.5t177.5 -36t177.5 36t146 97.5t97.5 146t36 177.5zM1024 384
q0 -104 -40.5 -199t-109 -163.5t-163.5 -109t-199 -40.5t-199 40.5t-163.5 109t-109 163.5t-40.5 199t40.5 199t109 163.5t163.5 109t199 40.5t199 -40.5t163.5 -109t109 -163.5t40.5 -199z" />
    <glyph glyph-name="uniEBDE" unicode="&#xebde;" 
d="M695 420.5q0 105.5 -75 181t-181 75t-181 -75.5t-75 -180.5t75 -180.5t181 -75.5t181 75t75 181zM987 -55q0 -30 -21.5 -51.5t-51.5 -21.5q-31 0 -51 22l-196 195q-102 -71 -228 -71q-82 0 -156.5 32t-128.5 86t-86 128.5t-32 156t32 156.5t86 129t128.5 85.5t156.5 31.5
t156.5 -31.5t128.5 -85.5t85.5 -129t31.5 -156q0 -126 -71 -228l196 -196q22 -22 22 -52h-1z" />
    <glyph glyph-name="uniEBDF" unicode="&#xebdf;" 
d="M622 439v-37q0 -7 -5.5 -12.5t-13.5 -5.5h-329q-7 0 -12.5 5.5t-5.5 12.5v37q0 7 5.5 12.5t12.5 5.5h329q8 0 13.5 -5.5t5.5 -12.5zM695 420.5q0 105.5 -75 181t-181 75t-181 -75.5t-75 -180.5t75 -180.5t181 -75.5t181 75t75 181zM987 -55q0 -30 -21 -51.5t-52 -21.5
t-51 22l-196 195q-102 -71 -228 -71q-82 0 -156.5 32t-128.5 86t-86 128.5t-32 156t32 156.5t86 129t128.5 85.5t156.5 31.5t156.5 -31.5t128.5 -85.5t85.5 -129t31.5 -156q0 -126 -71 -228l196 -196q22 -22 22 -52h-1z" />
    <glyph glyph-name="uniEBE0" unicode="&#xebe0;" 
d="M622 439v-37q0 -7 -5.5 -12.5t-13.5 -5.5h-128v-128q0 -7 -5 -12.5t-13 -5.5h-36q-8 0 -13.5 5.5t-5.5 12.5v128h-128q-7 0 -12.5 5.5t-5.5 12.5v37q0 7 5.5 12.5t12.5 5.5h128v128q0 8 5.5 13t13.5 5h36q8 0 13 -5t5 -13v-128h128q8 0 13.5 -5.5t5.5 -12.5zM695 420.5
q0 105.5 -75 181t-181 75t-181 -75.5t-75 -180.5t75 -180.5t181 -75.5t181 75t75 181zM987 -55q0 -30 -21 -51.5t-52 -21.5t-51 22l-196 195q-102 -71 -228 -71q-82 0 -156.5 32t-128.5 86t-86 128.5t-32 156t32 156.5t86 129t128.5 85.5t156.5 31.5t156.5 -31.5
t128.5 -85.5t85.5 -129t31.5 -156q0 -126 -71 -228l196 -196q22 -22 22 -52h-1z" />
    <glyph glyph-name="uniEBFE" unicode="&#xebfe;" 
d="M301 99.5q0 -30.5 -21.5 -52t-52.5 -21.5q-29 0 -51 22t-22 51q0 31 21.5 52.5t52 21.5t52 -21.5t21.5 -52zM585 -18.5q0 -30.5 -21.5 -51.5t-51.5 -21t-51.5 21t-21.5 51.5t21.5 52t51.5 21.5t51.5 -21.5t21.5 -52zM183 384q0 -30 -21.5 -51.5t-52 -21.5t-51.5 21.5
t-21 51.5t21 51.5t51.5 21.5t52 -21.5t21.5 -51.5zM870 99q0 -29 -22 -51t-51 -22q-31 0 -52.5 21.5t-21.5 52t21.5 52t52 21.5t52 -21.5t21.5 -52.5zM319 668.5q0 -37.5 -27 -64.5t-64.5 -27t-64.5 27t-27 64.5t27 64.5t64.5 27t64.5 -27t27 -64.5zM987 384
q0 -30 -21 -51.5t-51.5 -21.5t-52 21.5t-21.5 51.5t21.5 51.5t52 21.5t51.5 -21.5t21 -51.5zM622 786.5q0 -45.5 -32 -77.5t-78 -32.5t-78 32t-32 78t32 77.5t78 32t78 -32t32 -77.5zM925 669q0 -54 -38 -91t-90 -37q-54 0 -91 37t-37 91q0 52 37 90t91 38q52 0 90 -38
t38 -90z" />
    <glyph glyph-name="uniEC01" unicode="&#xec01;" horiz-adv-x="1171" 
d="M966 446q84 0 144 -56t60 -140q0 -89 -62 -149t-153 -60q-48 0 -92 16t-79 42t-67.5 60.5t-62 72.5t-59 75.5t-62 72t-67 60.5t-78 42t-90.5 16q-88 0 -144 -52.5t-56 -139.5q0 -90 59.5 -143t150.5 -53q57 0 119 21.5t110 55.5q3 3 12 11t17 13.5t13 5.5q8 0 14 -6
t6 -14q0 -14 -34 -44q-58 -50 -134.5 -81t-148.5 -31q-76 0 -140.5 33t-103 94.5t-38.5 137.5q0 117 81 195t198 78q69 0 130 -25t106 -64.5t86.5 -87.5t79.5 -96t76.5 -87.5t85.5 -64.5t98 -25q58 0 96 35t38 93q0 54 -36.5 90.5t-91.5 36.5q-17 0 -46.5 -10.5t-38.5 -10.5
q-12 0 -20.5 8.5t-8.5 20.5q0 10 4.5 32.5t4.5 33.5q0 91 -61.5 150.5t-151.5 59.5q-34 0 -64.5 -10.5t-48 -23t-31.5 -23.5t-19 -11q-8 0 -14 6t-6 15q0 11 14 26q34 38 84 59t104 21q109 0 181.5 -71.5t72.5 -180.5q0 -21 -2 -38q32 9 66 9z" />
    <glyph glyph-name="uniEC06" unicode="&#xec06;" 
d="M721 282q-21 -69 -78.5 -111.5t-130 -42.5t-130.5 42.5t-79 111.5q-5 14 2 27.5t22 17.5q14 5 27.5 -2t18.5 -22q14 -45 52.5 -73.5t86.5 -28.5t86.5 28.5t53.5 73.5q4 15 18 22t28 2.5t21 -18t2 -27.5zM439 530.5q0 -30.5 -21.5 -52t-51.5 -21.5t-51.5 21.5t-21.5 52
t21.5 51.5t51.5 21t51.5 -21t21.5 -51.5zM732 530.5q0 -30.5 -21.5 -52t-52 -21.5t-52 21.5t-21.5 52t21.5 51.5t52 21t52 -21t21.5 -51.5zM878 384q0 74 -29 142t-78 116.5t-117 78t-142 29.5t-142 -29.5t-116.5 -78t-77.5 -116.5t-29 -142t29 -142t77.5 -116.5t116.5 -78
t142 -29.5t142 29.5t117 78t78 116.5t29 142zM951 384q0 -119 -59 -220t-160 -160t-220 -59t-220 59t-160 160t-59 220t59 220t160 160t220 59t220 -59t160 -160t59 -220z" />
    <glyph glyph-name="uniEC07" unicode="&#xec07;" 
d="M805 274q0 -15 -11 -25l-256 -256q-11 -11 -26 -11t-26 11l-256 256q-11 10 -11 25t11 26t26 11h512q15 0 26 -11t11 -26zM805 494q0 -15 -11 -26t-26 -11h-512q-15 0 -26 11t-10.5 26t10.5 25l256 256q11 11 26 11t26 -11l256 -256q11 -10 11 -25z" />
    <glyph glyph-name="uniEC0C" unicode="&#xec0c;" 
d="M805 494q0 -15 -11 -26t-26 -11h-512q-15 0 -26 11t-10.5 26t10.5 25l256 256q11 11 26 11t26 -11l256 -256q11 -10 11 -25z" />
    <glyph glyph-name="uniEC0D" unicode="&#xec0d;" 
d="M805 274q0 -15 -11 -25l-256 -256q-11 -11 -26 -11t-26 11l-256 256q-11 10 -11 25t11 26t26 11h512q15 0 26 -11t11 -26z" />
    <glyph glyph-name="uniEC71" unicode="&#xec71;" 
d="M622 695v-622q0 -15 -11 -26t-26 -10.5t-26 10.5l-190 191h-150q-14 0 -25 10.5t-11 25.5v220q0 15 10.5 25.5t25.5 10.5h150l190 191q11 10 26 10t26 -10.5t11 -25.5zM841 384q0 -43 -24 -80.5t-64 -53.5q-6 -3 -15 -3q-15 0 -25.5 10.5t-10.5 26.5q0 11 7 19.5
t16.5 14.5t19 13t16.5 20.5t7 32.5t-7 32.5t-16.5 20.5t-19 13t-16.5 14.5t-7 19.5q0 16 10.5 26.5t25.5 10.5q9 0 15 -3q40 -15 64 -53t24 -81z" />
    <glyph glyph-name="uniEC72" unicode="&#xec72;" 
d="M731 695v-622q0 -15 -10.5 -26t-25.5 -10.5t-26 10.5l-190 191h-150q-15 0 -26 10.5t-10 25.5v220q0 15 10.5 25.5t25.5 10.5h150l190 191q11 10 26 10t25.5 -10.5t10.5 -25.5z" />
    <glyph glyph-name="uniEC73" unicode="&#xec73;" 
d="M475 695v-622q0 -15 -10.5 -26t-25.5 -10.5t-26 10.5l-190 191h-150q-15 0 -26 10.5t-10 25.5v220q0 15 10.5 25.5t25.5 10.5h150l190 191q11 10 26 10t25.5 -10.5t10.5 -25.5zM695 384q0 -43 -24.5 -80.5t-64.5 -53.5q-5 -3 -14 -3q-15 0 -26 10.5t-11 26.5q0 11 7 19.5
t17 14.5t19.5 13t16.5 20.5t7 32.5t-7 32.5t-16.5 20.5t-19.5 13t-17 14.5t-7 19.5q0 16 11 26.5t26 10.5q9 0 14 -3q40 -15 64.5 -53t24.5 -81zM841 384q0 -87 -48.5 -161t-128.5 -108q-7 -3 -14 -3q-16 0 -26.5 11t-10.5 26q0 22 22 33q32 17 43 25q43 31 66.5 77.5
t23.5 99.5t-23.5 99.5t-66.5 77.5q-11 8 -43 25q-22 11 -22 33q0 15 10.5 26t25.5 11q8 0 15 -3q80 -34 128.5 -108t48.5 -161zM987 384q0 -131 -72.5 -241t-192.5 -162q-8 -3 -15 -3q-15 0 -26 10.5t-11 25.5q0 21 23 34q4 2 12.5 6t12.5 6q27 14 47 29q71 52 110 129.5
t39 165t-39 165.5t-110 130q-20 15 -47 29q-4 2 -12.5 6t-12.5 6q-23 13 -23 34q0 14 11 25t26 11q7 0 15 -3q120 -52 193 -162t72 -241z" />
    <glyph glyph-name="uniEC74" unicode="&#xec74;" 
d="M598 151v90q0 29 -16 29q-10 0 -19 -9v-128q9 -10 19 -10q16 0 16 28zM703 221h38v20q0 29 -19 29t-19 -29v-20zM377 373v-40h-46v-242h-42v242h-44v40h132zM492 301v-210h-38v23q-23 -25 -44 -25q-19 0 -24 16q-3 9 -3 30v166h38v-154v-15q1 -9 9 -9q11 0 24 18v160h38z
M636 238v-84q0 -29 -4 -41q-7 -24 -30 -24q-20 0 -39 23v-21h-38v282h38v-92q18 23 39 23q23 0 30 -24q4 -12 4 -42zM779 164v-5q0 -17 -1 -25q-1 -12 -8 -23q-16 -22 -46 -22t-46 21q-12 16 -12 50v73q0 34 11 49q17 22 46 22t44 -22q12 -16 12 -49v-43h-76v-37
q0 -29 20 -29q13 0 17 14v4v10v12h39zM522 635v-89q0 -29 -18.5 -29t-18.5 29v89q0 30 18.5 30t18.5 -30zM826 227q0 102 -11 149q-5 25 -24 42t-44 20q-77 8 -235 8q-157 0 -235 -8q-25 -3 -43.5 -20t-24.5 -42q-11 -50 -11 -149q0 -100 11 -148q6 -25 24.5 -42t43.5 -20
q78 -8 235 -8t235 8q25 3 43.5 20t24.5 42q11 48 11 148zM395 599l51 170h-43l-29 -112l-30 112h-45l14 -40l13 -39q20 -59 27 -91v-114h42v114zM560 553v74q0 34 -12 50q-17 22 -45 22q-29 0 -44 -22q-12 -16 -12 -50v-74q0 -33 12 -50q15 -21 44 -21q28 0 45 21
q12 16 12 50zM663 485h39v211h-39v-162q-12 -17 -24 -17q-8 0 -9 9v15v155h-39v-167q0 -22 4 -32q6 -15 24 -15q21 0 44 25v-22zM951 658v-548q0 -68 -48.5 -116.5t-116.5 -48.5h-548q-68 0 -116.5 48.5t-48.5 116.5v548q0 68 48.5 116.5t116.5 48.5h548q68 0 116.5 -48.5
t48.5 -116.5z" />
    <glyph glyph-name="uniEC77" unicode="&#xec77;" 
d="M628 185v-120q0 -39 -22 -39q-13 0 -26 13v172q13 13 26 13q22 0 22 -39zM821 185v-27h-51v27q0 38 25.5 38t25.5 -38zM269 309h61v54h-178v-54h60v-325h57v325zM434 -16h51v282h-51v-216q-17 -24 -33 -24q-10 0 -12 12v20v208h-51v-223q0 -28 4 -42q7 -21 33 -21
q28 0 59 35v-31zM679 69v112q0 42 -5 57q-10 32 -41 32q-28 0 -53 -31v124h-51v-379h51v27q26 -31 53 -31q31 0 41 31q5 16 5 57v1zM872 74v8h-52q0 -29 -1 -35q-4 -21 -23 -21q-26 0 -26 40v49h102v59q0 46 -15 67q-23 29 -61 29q-39 0 -61 -29q-16 -21 -16 -67v-99
q0 -45 16 -66q23 -29 62 -29q41 0 62 30q10 16 12 31q1 5 1 33zM525 596v120q0 39 -25 39t-25 -39v-120q0 -40 25 -40t25 40zM935 167q0 -134 -14 -200q-8 -34 -33.5 -56.5t-58.5 -26.5q-105 -12 -317 -12t-317 12q-33 4 -58.5 26.5t-33.5 56.5q-14 64 -14 200q0 134 14 200
q8 34 33.5 56.5t58.5 26.5q105 12 317 12t317 -12q33 -4 58.5 -26.5t33.5 -56.5q14 -64 14 -200zM365 896h58l-69 -228v-155h-57v155q-8 42 -35 121q-21 59 -37 107h61l40 -150zM577 706v-100q0 -47 -16 -68q-22 -29 -61 -29q-38 0 -60 29q-16 22 -16 68v100q0 45 16 67
q22 29 60 29q39 0 61 -29q16 -22 16 -67zM768 798v-285h-52v32q-30 -36 -59 -36q-26 0 -34 21q-4 14 -4 43v225h52v-209v-20q2 -13 12 -13q16 0 33 25v217h52z" />
    <glyph glyph-name="uniEC78" unicode="&#xec78;" horiz-adv-x="1025" 
d="M731 384q0 21 -17 31l-292 183q-18 11 -37 1t-19 -32v-366q0 -22 19 -32q9 -4 17 -4q12 0 20 5l292 183q17 10 17 31zM1024 384q0 -55 -0.5 -86t-5 -78t-12.5 -84q-9 -42 -39.5 -70.5t-71.5 -32.5q-126 -15 -383 -15t-383 15q-41 4 -71.5 32.5t-39.5 70.5q-8 37 -12.5 84
t-5 78t-0.5 86t0.5 86t5 78t12.5 84q9 42 39.5 70.5t71.5 32.5q126 15 383 15t383 -15q41 -4 71.5 -32.5t39.5 -70.5q8 -37 12.5 -84t5 -78t0.5 -86z" />
    <glyph glyph-name="uniEC7D" unicode="&#xec7d;" horiz-adv-x="1171" 
d="M332 632.5q0 23.5 -14.5 38t-37.5 14.5q-25 0 -44 -15t-19 -37q0 -23 19 -37.5t44 -14.5q23 0 37.5 14t14.5 37.5zM756 343q0 16 -14.5 28.5t-37.5 12.5q-15 0 -28 -13t-13 -28q0 -16 13 -29t28 -13q23 0 37.5 12.5t14.5 29.5zM621 632.5q0 23.5 -14 38t-37 14.5
q-25 0 -43.5 -15t-18.5 -37q0 -23 18.5 -37.5t43.5 -14.5q23 0 37 14t14 37.5zM984 343q0 16 -15 28.5t-37 12.5q-15 0 -28 -13t-13 -28q0 -16 13 -29t28 -13q22 0 37 12.5t15 29.5zM832 570q-18 2 -40 2q-96 0 -177.5 -44t-128 -119t-46.5 -164q0 -45 13 -87q-20 -2 -39 -2
q-14 0 -28 1t-31.5 3.5t-25.5 4t-31.5 6t-28.5 6.5l-144 -73l41 125q-166 116 -166 280q0 96 55.5 177.5t151 128t207.5 46.5q101 0 190.5 -38t149.5 -104.5t78 -148.5zM1170 249q0 -67 -39 -127.5t-106 -110.5l32 -104l-114 63q-86 -21 -125 -21q-96 0 -177 40t-127.5 109
t-47 151t46.5 151t128 109.5t177 40.5q92 0 173.5 -40.5t130 -110t48.5 -150.5z" />
    <glyph glyph-name="uniEC7E" unicode="&#xec7e;" horiz-adv-x="1025" 
d="M386 162q12 20 6 40t-26 28q-19 8 -41.5 1t-34.5 -26q-12 -20 -7 -39.5t24.5 -29t42.5 -1.5t36 27zM439 231q5 8 2.5 15.5t-10.5 10.5t-16 0t-12 -11q-10 -17 7 -25q8 -3 16.5 0t12.5 10zM539 170q-26 -58 -90.5 -85.5t-127.5 -6.5q-62 19 -85 72t4 107q27 53 86.5 79.5
t120.5 10.5q63 -16 90.5 -68t1.5 -109zM717 262q-5 55 -50.5 97t-119 62t-157.5 12q-127 -13 -211 -80.5t-76 -151.5q6 -55 51.5 -97t119 -62t156.5 -12q128 13 211.5 80.5t75.5 151.5zM893 259q0 -38 -21 -79t-62 -78.5t-96.5 -67t-129.5 -47.5t-154.5 -18t-157 19.5
t-137.5 53t-98 86t-37 114.5q0 66 39.5 140t113.5 147q96 97 194.5 135.5t141.5 -4.5q37 -36 11 -119q-2 -8 -0.5 -11.5t5.5 -4t8.5 0t7.5 2.5l4 1q79 33 140 33t87 -34q26 -36 0 -102q-1 -8 -2 -12t2.5 -7t6.5 -4t10 -3q33 -11 59 -27.5t45.5 -46.5t19.5 -66v-1zM851 616
q24 -27 31 -62t-4 -67q-4 -13 -16.5 -19.5t-25.5 -2.5q-13 5 -19.5 17t-2.5 25q12 36 -13 63.5t-62 20.5q-13 -3 -25 4.5t-15 20.5q-2 14 5 26t21 14q34 8 68 -2.5t58 -37.5zM954 709q50 -55 64.5 -127t-7.5 -138q-5 -15 -19.5 -22.5t-30 -2.5t-23 19.5t-2.5 29.5
q16 47 5.5 98.5t-45.5 90.5t-84.5 54t-98.5 5q-16 -3 -30 5.5t-17.5 24.5t5.5 29.5t25 17.5q70 14 139.5 -7.5t118.5 -76.5z" />
    <glyph glyph-name="uniEC80" unicode="&#xec80;" 
d="M621 218l58 -117q-33 -102 -119.5 -165.5t-193.5 -63.5q-89 0 -165 44.5t-120.5 120t-43.5 164.5q0 104 59.5 189t156.5 120l10 -75q-70 -30 -111.5 -94t-41.5 -140q0 -106 75 -181t181 -75q72 0 132.5 37t94 100.5t28.5 135.5zM934 161l33 -66l-146 -73q-7 -4 -17 -4
q-22 0 -32 20l-137 273h-269q-14 0 -24.5 9.5t-12.5 22.5l-55 445q-1 10 4 24q8 30 32.5 48t55.5 18q37 0 64 -27t27 -65q0 -39 -29.5 -67t-68.5 -24l21 -165h242v-73h-233l9 -73h260q23 0 33 -20l130 -260z" />
    <glyph glyph-name="uniEC81" unicode="&#xec81;" horiz-adv-x="1171" 
d="M585.5 26q-11.5 0 -53.5 42t-42 53q0 18 36 31t59.5 13t59 -13t35.5 -31q0 -11 -41.5 -53t-53 -42zM739 181q-1 0 -22.5 14t-58 28.5t-73.5 14.5t-73.5 -14.5t-57.5 -29t-23 -13.5q-10 0 -53.5 42.5t-43.5 53.5q0 7 6 13q45 44 112 69t133 25t133.5 -25t111.5 -69
q6 -6 6 -13q0 -11 -43 -53.5t-54 -42.5zM895 336q-6 0 -13 5q-77 60 -143.5 88t-153.5 28q-48 0 -97 -12.5t-85.5 -30t-65 -35.5t-45 -30.5t-17.5 -12.5q-10 0 -53 43t-43 53q0 7 6 13q75 75 182.5 117t217.5 41.5t217.5 -42t182.5 -116.5q6 -6 6 -13q0 -10 -43 -53t-53 -43
zM1050 491q-6 0 -12 5q-103 90 -213 135.5t-240 45.5t-240 -45.5t-212 -135.5q-7 -5 -13 -5q-10 0 -53 43t-43 53q0 7 6 13q107 106 254 164.5t301 58.5t301.5 -58.5t254.5 -164.5q5 -6 5 -13q0 -10 -43 -53t-53 -43z" />
    <glyph glyph-name="uniEC83" unicode="&#xec83;" 
d="M426 321v-372l-389 54v318h389zM426 746v-377h-389v323zM987 321v-449l-518 71v378h518zM987 823v-454h-518v382z" />
    <glyph glyph-name="uniEC85" unicode="&#xec85;" 
d="M256 55q0 15 -11 26t-25.5 10.5t-25.5 -11t-11 -25.5t11 -26t25.5 -11t25.5 11t11 26zM624 295l-390 -390q-21 -21 -51 -21t-52 21l-61 62q-21 20 -21 51t21 52l389 389q23 -56 66 -99t99 -65zM986 543q0 -22 -13 -60q-27 -77 -94 -124.5t-148 -47.5q-105 0 -180.5 75
t-75.5 181t75.5 181t180.5 75q33 0 69.5 -9.5t61.5 -26.5q9 -6 9 -16t-9 -16l-167 -97v-128l110 -61q3 2 45 28t77.5 46t40.5 20q9 0 13.5 -5.5t4.5 -13.5v-1z" />
    <glyph glyph-name="uniEC89" unicode="&#xec89;" 
d="M1024 695v-622q0 -24 -22 -34q-8 -2 -15 -2q-15 0 -25 10l-231 231v-95q0 -68 -48 -116.5t-116 -48.5h-402q-68 0 -116.5 48.5t-48.5 116.5v402q0 68 48.5 116.5t116.5 48.5h402q68 0 116 -48.5t48 -116.5v-94l231 230q10 10 25 10q7 0 15 -2q22 -10 22 -34z" />
    <glyph glyph-name="uniEC8A" unicode="&#xec8a;" 
d="M977 600q-6 -135 -190 -372q-190 -246 -321 -246q-81 0 -137 150q-26 91 -76 275q-41 150 -90 150q-10 0 -72 -43l-44 56q13 12 61.5 55t74.5 66q89 79 138 83q54 5 87 -31.5t46 -116.5q25 -164 38 -213q31 -142 69 -142q29 0 88 92q57 92 62 141q7 79 -62 79
q-33 0 -70 -15q69 225 263 218q143 -4 135 -186z" />
    <glyph glyph-name="uniEC8B" unicode="&#xec8b;" 
d="M811 531q6 124 -92 127q-132 5 -178 -149q25 11 47 11q49 0 42 -55q-2 -32 -42 -95t-60 -63q-25 0 -47 96q-7 31 -26 146q-17 108 -91 101q-34 -4 -94 -57l-92 -82l29 -38q44 29 50 29q33 0 61 -102q9 -31 26 -94t26 -94q39 -102 93 -102q90 0 219 168q126 162 129 254
v-1zM951 658v-548q0 -68 -48.5 -116.5t-116.5 -48.5h-548q-68 0 -116.5 48.5t-48.5 116.5v548q0 68 48.5 116.5t116.5 48.5h548q68 0 116.5 -48.5t48.5 -116.5z" />
    <glyph glyph-name="uniECB6" unicode="&#xecb6;" horiz-adv-x="1171" 
d="M402 384q-91 0 -155 64.5t-64 155t64 155t155 64.5t155.5 -64.5t64.5 -155t-64.5 -155t-155.5 -64.5zM951 311h201q7 0 12.5 -5.5t5.5 -12.5v-110q0 -8 -5.5 -13t-12.5 -5h-201v-202q0 -7 -5.5 -12.5t-12.5 -5.5h-110q-8 0 -13 5.5t-5 12.5v202h-202q-7 0 -12.5 5
t-5.5 13v110q0 7 5.5 12.5t12.5 5.5h202v201q0 7 5 12.5t13 5.5h110q7 0 12.5 -5.5t5.5 -12.5v-201zM530 183q0 -30 22 -51.5t51 -21.5h147v-136q-39 -29 -98 -29h-499q-70 0 -111.5 39.5t-41.5 108.5q0 30 2 59t8 62.5t15 62t24.5 55.5t35.5 46.5t49 31t64 11.5
q10 0 22 -10q45 -35 88 -52.5t94 -17.5t94 17.5t88 52.5q12 10 23 10q75 0 124 -55h-128q-29 0 -51 -22t-22 -51v-110z" />
    <glyph glyph-name="uniECB7" unicode="&#xecb7;" 
d="M439 18l55 256l-55 73l-73 37zM585 18l73 366l-73 -37l-55 -73zM677 595q-2 3 -3 4q-5 4 -55 4q-40 0 -95 -10q-4 -2 -12 -2t-12 2q-55 10 -95 10q-50 0 -55 -4q-1 -1 -3 -4l3 -15q1 -2 4 -4t4 -6q1 -2 4.5 -11.5t4.5 -11.5t4 -9.5t4.5 -10t5.5 -8t7 -7.5t8 -5.5t10 -4.5
t11.5 -2.5t13.5 -1.5q21 0 34 7.5t18.5 17.5t8.5 19.5t6.5 16.5t10.5 7h7q6 0 9.5 -7t6.5 -16.5t8.5 -19.5t18.5 -17t34 -8q7 0 13.5 1.5t12 2.5t10 4.5t7.5 5.5t7 7.5t5.5 8t5 10t4 9.5t4 11.5t4.5 11.5q1 4 4 6t4 4q2 5 3 15zM914 93q0 -69 -41.5 -108.5t-110.5 -39.5
h-500q-69 0 -110.5 39.5t-41.5 108.5q0 35 2.5 67.5t10.5 71.5t21.5 70.5t36.5 59.5t53 43l-51 125h122q-13 37 -13 73q0 7 2 19q-111 23 -111 55t120 56q10 36 29.5 77t40.5 65q18 21 43 21q17 0 48 -17.5t48 -17.5t48 17.5t48 17.5q25 0 43 -21q21 -24 40.5 -65t29.5 -77
q120 -24 120 -56t-111 -55q4 -47 -11 -92h122l-47 -128q36 -19 61.5 -55.5t37.5 -82t16.5 -86.5t4.5 -85z" />
    <glyph glyph-name="uniECBD" unicode="&#xecbd;" horiz-adv-x="1025" 
d="M256 146v-109q0 -8 -5 -13.5t-13 -5.5h-110q-8 0 -13 5.5t-5 13.5v109q0 8 5 13.5t13 5.5h110q8 0 13 -5.5t5 -13.5zM146 366v-110q0 -8 -5 -13t-13 -5h-110q-8 0 -13 5t-5 13v110q0 8 5 13t13 5h110q8 0 13 -5t5 -13zM475 146v-109q0 -8 -5 -13.5t-13 -5.5h-110
q-8 0 -13 5.5t-5 13.5v109q0 8 5 13.5t13 5.5h110q8 0 13.5 -5.5t4.5 -13.5zM366 366v-110q0 -8 -5.5 -13t-13.5 -5h-109q-8 0 -13.5 5t-5.5 13v110q0 8 5.5 13t13.5 5h109q8 0 13.5 -5t5.5 -13zM38 457q-16 0 -27 11t-11 26v74h294v-74q0 -15 -11 -26t-26 -11h-219z
M695 146v-109q0 -8 -5 -13.5t-13 -5.5h-110q-8 0 -13.5 5.5t-4.5 13.5v109q0 8 5 13.5t13 5.5h110q8 0 13 -5.5t5 -13.5zM585 366v-110q0 -8 -5 -13t-13 -5h-110q-8 0 -13 5t-5 13v110q0 8 5 13t13 5h110q8 0 13 -5t5 -13zM914 146v-109q0 -8 -5 -13.5t-13 -5.5h-110
q-8 0 -13 5.5t-5 13.5v109q0 8 5 13.5t13 5.5h110q8 0 13 -5.5t5 -13.5zM805 366v-110q0 -8 -5.5 -13t-13.5 -5h-109q-8 0 -13.5 5t-5.5 13v110q0 8 5.5 13t13.5 5h109q8 0 13.5 -5t5.5 -13zM1024 599v-8h-294v6q0 60 -218 58q-218 0 -218 -58v-6h-294v8q0 10 5 24.5
t19.5 36.5t37.5 43.5t63 43.5t91 38.5t128 27t168 10.5t167.5 -10.5t128 -27t91.5 -38.5t63 -43.5t37.5 -43.5t19.5 -36.5t5 -24.5zM1024 366v-110q0 -8 -5 -13t-13 -5h-110q-8 0 -13 5t-5 13v110q0 8 5 13t13 5h110q8 0 13 -5t5 -13zM1024 568v-74q0 -15 -11 -26t-26 -11
h-220q-15 0 -26 11t-11 26v74h294z" />
    <glyph glyph-name="uniECBE" unicode="&#xecbe;" 
d="M759 137l46 -136q-14 -20 -64 -37.5t-101 -18.5q-59 -1 -108.5 15t-81.5 42t-54.5 60.5t-32 69t-9.5 67.5v311h-96v122q41 15 74 40t52 51.5t33 58.5t19.5 56.5t8.5 50.5q1 3 3 5t4 2h139v-243h191v-144h-191v-296q0 -17 3.5 -32t13 -30t28.5 -23.5t46 -7.5q45 1 77 16v1
z" />
    <glyph glyph-name="uniECBF" unicode="&#xecbf;" 
d="M722 61l-35 105q-25 -13 -59 -13q-21 0 -35.5 6.5t-22 18t-10 23t-2.5 24.5v228h147v110h-147v187h-107q-5 0 -5 -6q-3 -25 -10 -49.5t-22.5 -54.5t-44.5 -54.5t-67 -38.5v-94h74v-239q0 -33 12.5 -66t37 -63.5t69 -49t100.5 -17.5q40 1 78.5 14.5t48.5 28.5zM951 658
v-548q0 -68 -48.5 -116.5t-116.5 -48.5h-548q-68 0 -116.5 48.5t-48.5 116.5v548q0 68 48.5 116.5t116.5 48.5h548q68 0 116.5 -48.5t48.5 -116.5z" />
    <glyph glyph-name="uniECC0" unicode="&#xecc0;" 
d="M512 648v-248h-83v248h83zM739 648v-248h-82v248h82zM739 214l145 145v454h-682v-599h186v-124l124 124h227zM967 896v-579l-248 -248h-186l-124 -124h-124v124h-228v662l63 165h847z" />
    <glyph glyph-name="uniECC1" unicode="&#xecc1;" 
d="M962 663q-38 -56 -92 -96v-24q0 -74 -21.5 -148t-66 -142t-105.5 -120t-147.5 -83.5t-184.5 -31.5q-155 0 -283 83q20 -2 44 -2q129 0 229 79q-60 1 -107 36.5t-65 91.5q19 -3 35 -3q24 0 48 6q-64 13 -106 63.5t-42 117.5v2q39 -21 84 -23q-38 25 -60 65.5t-23 88.5
q0 50 26 93q69 -85 168 -136.5t212 -56.5q-4 21 -4 42q0 77 54 131t130 54q80 0 135 -59q62 12 117 45q-21 -66 -81 -102q53 6 106 29z" />
    <glyph glyph-name="uniECC2" unicode="&#xecc2;" 
d="M805 547q-32 -14 -70 -19q39 23 54 67q-38 -22 -77 -29q-35 37 -87 37q-50 0 -85 -35t-35 -85q0 -16 3 -27q-74 4 -138.5 37t-109.5 89q-17 -29 -17 -61q0 -65 52 -100q-27 1 -57 15v-1q0 -43 28.5 -76.5t70.5 -41.5q-17 -4 -29 -4q-8 0 -23 2q12 -36 42.5 -59.5
t69.5 -24.5q-66 -51 -149 -51q-15 0 -28 2q84 -54 184 -54q64 0 120 20.5t96 54.5t68.5 78t42.5 92.5t14 96.5v15q36 26 60 62zM951 658v-548q0 -68 -48.5 -116.5t-116.5 -48.5h-548q-68 0 -116.5 48.5t-48.5 116.5v548q0 68 48.5 116.5t116.5 48.5h548q68 0 116.5 -48.5
t48.5 -116.5z" />
    <glyph glyph-name="uniECC5" unicode="&#xecc5;" 
d="M987 567v-146q0 -15 -10.5 -26t-25.5 -11h-37q-15 0 -25.5 11t-10.5 26v146q0 60 -43 103t-103.5 43t-103.5 -43t-43 -103v-110h55q23 0 39 -16t16 -39v-329q0 -23 -16 -39t-39 -16h-549q-22 0 -38 16t-16 39v329q0 23 16 39t38 16h384v110q0 106 75.5 181t181 75
t180.5 -75t75 -181z" />
    <glyph glyph-name="uniECC6" unicode="&#xecc6;" 
d="M786 457q23 0 39 -16t16 -39v-329q0 -23 -16 -39t-39 -16h-548q-23 0 -39 16t-16 39v329q0 23 16 39t39 16h18v183q0 106 75 181t181 75t181 -75t75 -181q0 -15 -11 -26t-26 -11h-36q-15 0 -26 11t-11 26q0 61 -42.5 103.5t-103.5 42.5t-103.5 -42.5t-42.5 -103.5v-183
h420z" />
    <glyph glyph-name="uniECC8" unicode="&#xecc8;" 
d="M914 93q0 -68 -41.5 -108t-110.5 -40h-500q-69 0 -110.5 40t-41.5 108q0 30 2 59t8 62.5t15 62t24.5 55.5t35.5 46.5t49 31t63 11.5q5 0 24 -12.5t43 -27.5t62 -27.5t76 -12.5t76 12.5t62 27.5t42.5 27.5t24.5 12.5q34 0 63 -11.5t49 -31t35.5 -46.5t24.5 -55.5t15 -62
t8 -62.5t2 -59zM731 603.5q0 -90.5 -64 -155t-155 -64.5t-155 64.5t-64 155t64 155t155 64.5t155 -64.5t64 -155z" />
    <glyph glyph-name="uniECCA" unicode="&#xecca;" horiz-adv-x="1171" 
d="M658 384q0 59 -23 113t-62.5 93.5t-93.5 62.5t-113.5 23t-113.5 -23t-93 -62.5t-62.5 -93.5t-23.5 -113t23.5 -113t62.5 -93.5t93 -62.5t113.5 -23t113.5 23t93.5 62.5t62.5 93.5t23 113zM1097 384q0 59 -23 113t-62.5 93.5t-93.5 62.5t-113 23h-221q68 -51 108 -127.5
t40 -164.5t-40 -164.5t-108 -128.5h221q59 0 113 23.5t93.5 62.5t62.5 93t23 114zM1170 384q0 -74 -29 -142t-78 -116.5t-116.5 -78t-141.5 -29.5h-439q-75 0 -142.5 29.5t-116.5 78t-78 116.5t-29 142t29 142t78 116.5t117 78t142 29.5h439q74 0 141.5 -29.5t116.5 -78
t78 -116.5t29 -142z" />
    <glyph glyph-name="uniECCB" unicode="&#xeccb;" horiz-adv-x="1171" 
d="M0 384q0 74 29 142t78 116.5t116.5 78t142.5 29.5h438q75 0 142.5 -29.5t116.5 -78t78 -116.5t29 -142t-29 -142t-78 -116.5t-116.5 -78t-142.5 -29.5h-438q-75 0 -142.5 29.5t-116.5 78t-78 116.5t-29 142zM804.5 91q59.5 0 113.5 23.5t93.5 63t62.5 93t23 113
t-23 113.5t-62.5 93.5t-93.5 62.5t-113.5 23t-113.5 -23t-93.5 -62.5t-62.5 -93.5t-23 -113.5t23 -113t62.5 -93t93.5 -63t113.5 -23.5z" />
    <glyph glyph-name="uniECCF" unicode="&#xeccf;" 
d="M402 110v402q0 8 -5 13t-13 5h-37q-8 0 -13 -5t-5 -13v-402q0 -8 5 -13.5t13 -5.5h37q8 0 13 5.5t5 13.5zM549 110v402q0 8 -5.5 13t-13.5 5h-36q-8 0 -13.5 -5t-5.5 -13v-402q0 -8 5.5 -13.5t13.5 -5.5h36q8 0 13.5 5.5t5.5 13.5zM695 110v402q0 8 -5 13t-13 5h-37
q-8 0 -13 -5t-5 -13v-402q0 -8 5 -13.5t13 -5.5h37q8 0 13 5.5t5 13.5zM384 677h256l-27 66q-4 6 -10 7h-181q-6 -1 -10 -7zM914 658v-36q0 -8 -5 -13.5t-13 -5.5h-55v-541q0 -48 -27 -82.5t-64 -34.5h-476q-37 0 -64 33.5t-27 80.5v544h-55q-8 0 -13 5.5t-5 13.5v36
q0 8 5 13.5t13 5.5h177l40 95q8 21 30.5 36t45.5 15h182q23 0 45.5 -15t30.5 -36l40 -95h177q8 0 13 -5.5t5 -13.5z" />
    <glyph glyph-name="uniECD0" unicode="&#xecd0;" 
d="M402 475v-329q0 -8 -5 -13t-13 -5h-37q-8 0 -13 5t-5 13v329q0 8 5 13.5t13 5.5h37q8 0 13 -5.5t5 -13.5zM549 475v-329q0 -8 -5.5 -13t-13.5 -5h-36q-8 0 -13.5 5t-5.5 13v329q0 8 5.5 13.5t13.5 5.5h36q8 0 13.5 -5.5t5.5 -13.5zM695 475v-329q0 -8 -5 -13t-13 -5h-37
q-8 0 -13 5t-5 13v329q0 8 5 13.5t13 5.5h37q8 0 13 -5.5t5 -13.5zM768 62v541h-512v-541q0 -13 4 -23.5t8.5 -15.5t5.5 -5h476q1 0 5.5 5t8.5 15.5t4 23.5zM384 677h256l-27 66q-4 6 -10 7h-181q-6 -1 -10 -7zM914 658v-36q0 -8 -5 -13.5t-13 -5.5h-55v-541
q0 -48 -27 -82.5t-64 -34.5h-476q-37 0 -64 33.5t-27 80.5v544h-55q-8 0 -13 5.5t-5 13.5v36q0 8 5 13.5t13 5.5h177l40 95q8 21 30.5 36t45.5 15h182q23 0 45.5 -15t30.5 -36l40 -95h177q8 0 13 -5.5t5 -13.5z" />
    <glyph glyph-name="uniECD5" unicode="&#xecd5;" horiz-adv-x="1025" 
d="M366 91.5q0 29.5 -22 51.5t-51.5 22t-51.5 -22t-22 -51.5t22 -51.5t51.5 -22t51.5 22t22 51.5zM146 384h220v146h-91q-7 0 -12 -5l-112 -111q-5 -5 -5 -13v-17zM878 91.5q0 29.5 -22 51.5t-51.5 22t-51.5 -22t-22 -51.5t22 -51.5t51.5 -22t51.5 22t22 51.5zM1024 713
v-585q0 -9 -2.5 -15.5t-7.5 -10.5t-9 -6.5t-13.5 -3.5t-13.5 -1h-14h-13q0 -60 -43 -103t-103.5 -43t-103.5 43t-43 103h-219q0 -60 -43 -103t-103.5 -43t-103.5 43t-43 103h-36h-13h-15q-3 0 -12.5 1t-13.5 3.5t-9.5 6.5t-7.5 10.5t-2 15.5q0 15 10.5 26t25.5 11v182v21v21
q0 6 1 19.5t4 21.5t8 17.5t13 17.5l113 113q11 11 29 18t33 7h92v110q0 15 10.5 26t25.5 11h586q14 0 25 -11t11 -26z" />
    <glyph glyph-name="uniECD7" unicode="&#xecd7;" 
d="M219 128q0 15 -10.5 26t-25.5 10.5t-26 -11t-11 -25.5t11 -25.5t26 -11t25.5 10.5t10.5 26zM878 457q0 29 -22.5 51t-50.5 22h-202q0 33 27.5 91t27.5 92q0 56 -18 83t-73 27q-15 -15 -22 -48.5t-17.5 -71.5t-33.5 -63q-13 -13 -44 -52q-3 -3 -13.5 -17t-18 -23.5
t-20 -24.5t-22.5 -25t-22 -20t-23 -15.5t-20 -5.5h-18v-365h18q7 0 17.5 -2t19 -4t22 -6t20 -6.5t20 -7.5t16.5 -6q121 -42 196 -42h69q110 0 110 96q0 15 -3 32q17 9 27 30t10 42t-10 39q30 29 30 68q0 15 -6 32.5t-14 26.5q18 1 30.5 27t12.5 46zM951 458q0 -51 -28 -93
q5 -19 5 -40q0 -44 -22 -82q2 -12 2 -25q0 -57 -34 -101q0 -80 -49 -126t-130 -46h-73q-55 0 -108.5 13t-123.5 37q-67 23 -79 23h-165q-30 0 -51.5 21.5t-21.5 51.5v366q0 30 21.5 51.5t51.5 21.5h157q20 14 78 89q33 43 61 73q14 14 20.5 48.5t17.5 72.5t35 62
q23 21 52 21q48 0 86 -18.5t58 -58t20 -106.5q0 -53 -27 -110h100q60 0 103.5 -43t43.5 -102z" />
    <glyph glyph-name="uniECD8" unicode="&#xecd8;" 
d="M183 128q0 15 -11 26t-26 11t-25.5 -11t-10.5 -26t10.5 -25.5t25.5 -11.5q15 0 26 11t11 26zM274 421v-366q0 -15 -10.5 -26t-25.5 -11h-165q-15 0 -26 11t-10 26v366q0 14 10.5 25t25.5 11h165q15 0 25.5 -11t10.5 -25zM951 421q0 -50 -32 -86q9 -25 9 -43
q2 -43 -25 -78q10 -32 0 -67q-8 -33 -30 -54q5 -64 -28 -103q-37 -44 -113 -45h-74q-38 0 -82.5 9t-69 16.5t-68.5 22.5q-71 25 -91 25q-14 1 -25 11.5t-11 25.5v366q0 15 10 25.5t25 11.5q13 1 43 33.5t58 69.5q39 49 58 68q10 11 17.5 28t10 27.5t7.5 34.5q4 22 7 34.5
t11 30t20 28.5q11 11 26 11q26 0 47 -6t34 -15t22.5 -23t14 -25.5t7 -28.5t2.5 -26t1 -22q0 -22 -5.5 -44t-11 -34.5t-15.5 -31.5q-2 -4 -6 -10.5t-6.5 -12.5t-4.5 -14h158q45 0 77.5 -32.5t32.5 -76.5z" />
    <glyph glyph-name="uniECD9" unicode="&#xecd9;" 
d="M457 402v256q0 8 -5 13.5t-13 5t-13 -5.5t-5 -13v-256q0 -8 5 -13t13 -5t13 5t5 13zM841 201q0 -15 -11 -26t-25 -10h-246l-29 -276q-1 -7 -6 -12t-11 -5h-1q-15 0 -18 16l-44 277h-231q-14 0 -25 10.5t-11 25.5q0 71 45 127t101 56v293q-30 0 -51.5 21.5t-21.5 51
t21.5 51.5t51.5 22h366q30 0 51.5 -22t21.5 -51.5t-21.5 -51t-51.5 -21.5v-293q56 0 101 -56.5t45 -126.5z" />
    <glyph glyph-name="uniECDB" unicode="&#xecdb;" 
d="M730 255q0 15 -11 26l-103 103l103 103q11 11 11 26q0 16 -11 26l-51 52q-11 11 -27 11q-15 0 -25 -11l-104 -104l-103 104q-11 11 -26 11t-26 -11l-52 -52q-11 -10 -11 -26q0 -15 11 -26l104 -103l-104 -103q-11 -11 -11 -26q0 -16 11 -26l52 -52q11 -11 26 -11t26 11
l103 104l104 -104q10 -11 25 -11q16 0 27 11l51 52q11 10 11 26zM951 384q0 -119 -59 -220t-160 -160t-220 -59t-220 59t-160 160t-59 220t59 220t160 160t220 59t220 -59t160 -160t59 -220z" />
    <glyph glyph-name="uniECDC" unicode="&#xecdc;" 
d="M700 279l-83 -83q-6 -6 -13.5 -6t-13.5 6l-78 78l-78 -78q-6 -6 -13.5 -6t-13.5 6l-83 83q-6 6 -6 13.5t6 13.5l78 78l-78 78q-6 6 -6 13.5t6 13.5l83 83q6 6 13.5 6t13.5 -6l78 -78l78 78q6 6 13.5 6t13.5 -6l83 -83q6 -6 6 -13.5t-6 -13.5l-78 -78l78 -78q6 -6 6 -13.5
t-6 -13.5zM823 384q0 85 -41.5 156t-113 113t-156 42t-156 -42t-113.5 -113t-42 -156t42 -156t113.5 -113t156 -42t156 42t113 113t41.5 156zM951 384q0 -119 -59 -220t-160 -160t-220 -59t-220 59t-160 160t-59 220t59 220t160 160t220 59t220 -59t160 -160t59 -220z" />
    <glyph glyph-name="uniECDD" unicode="&#xecdd;" horiz-adv-x="1098" 
d="M256 640q0 30 -21.5 51.5t-51.5 21.5t-51.5 -21.5t-21.5 -51.5t21.5 -51.5t51.5 -21.5t51.5 21.5t21.5 51.5zM866 311q0 -30 -21 -52l-281 -281q-22 -21 -52 -21t-51 21l-409 409q-22 22 -37 58.5t-15 66.5v238q0 29 21.5 51t51.5 22h238q30 0 66.5 -15t58.5 -37
l409 -408q21 -22 21 -52zM1085 311q0 -30 -21 -52l-281 -281q-22 -21 -52 -21q-20 0 -33 8t-31 26l269 268q21 22 21 52t-21 52l-409 408q-21 22 -57.5 37t-67.5 15h128q31 0 67.5 -15t57.5 -37l409 -408q21 -22 21 -52z" />
    <glyph glyph-name="uniECDF" unicode="&#xecdf;" horiz-adv-x="1098" 
d="M1024 183v548q0 8 -5.5 13.5t-12.5 5.5h-915q-7 0 -12.5 -5.5t-5.5 -13.5v-548q0 -8 5.5 -13t12.5 -5h915q7 0 12.5 5t5.5 13zM1097 731v-548q0 -38 -27 -65t-64 -27h-421v-73h201q8 0 13.5 -5t5.5 -13v-37q0 -8 -5.5 -13t-13.5 -5h-475q-8 0 -13.5 5t-4.5 13v37
q0 8 5 13t13 5h201v73h-421q-37 0 -64 27t-27 65v548q0 38 27 65t64 27h915q37 0 64 -27t27 -65z" />
    <glyph glyph-name="uniECE0" unicode="&#xece0;" 
d="M627 569q0 -46 -32.5 -78t-77.5 -32q-34 0 -63 20q-36 -38 -66 -84q-141 -212 -115 -490q0 -13 -7.5 -22.5t-19.5 -10.5h-3q-11 0 -20 7.5t-10 19.5q-8 72 -2 141.5t17 124t31 106t39.5 88.5t42.5 72q35 51 75 94q-9 20 -9 44q0 46 32 78t78 32t78 -32t32 -78zM845 563
q0 -90 -44.5 -167t-121.5 -121.5t-167 -44.5q-36 0 -75 8q-12 3 -18.5 13.5t-3.5 22.5t13 18.5t22 4.5q30 -8 62 -8q56 0 106.5 22t87 58.5t58.5 87t22 106t-22 106.5t-58.5 87.5t-87 58.5t-106 22t-106.5 -22t-87.5 -58.5t-58.5 -87.5t-22 -106q0 -65 30 -125
q6 -11 2 -22.5t-14.5 -17t-22.5 -1.5t-17 15q-37 70 -37 151q0 68 26.5 129.5t71 106t106.5 71t129 26.5q90 0 167 -44.5t121.5 -121.5t44.5 -167z" />
    <glyph glyph-name="uniECE1" unicode="&#xece1;" 
d="M371 334l-266 -266q-6 -6 -13.5 -6t-13.5 6l-28 29q-6 5 -6 12.5t6 13.5l224 224l-224 225q-6 6 -6 13.5t6 12.5l28 29q6 6 13.5 6t13.5 -6l266 -266q6 -6 6 -13.5t-6 -13.5zM987 73v-36q0 -8 -5 -13.5t-13 -5.5h-548q-8 0 -13.5 5.5t-5.5 13.5v36q0 8 5.5 13.5t13.5 4.5
h548q8 0 13.5 -5t4.5 -13z" />
    <glyph glyph-name="uniECE5" unicode="&#xece5;" 
d="M475 311v-220q0 -29 -21.5 -51t-51.5 -22h-292q-30 0 -51.5 22t-21.5 51v220q0 30 21.5 51.5t51.5 21.5h292q30 0 51.5 -21.5t21.5 -51.5zM475 750v-220q0 -29 -21.5 -51t-51.5 -22h-292q-30 0 -51.5 22t-21.5 51v220q0 29 21.5 51t51.5 22h292q30 0 51.5 -22t21.5 -51z
M987 311v-220q0 -29 -21.5 -51t-51.5 -22h-292q-30 0 -51.5 22t-21.5 51v220q0 30 21.5 51.5t51.5 21.5h292q30 0 51.5 -21.5t21.5 -51.5zM987 750v-220q0 -29 -21.5 -51t-51.5 -22h-292q-30 0 -51.5 22t-21.5 51v220q0 29 21.5 51t51.5 22h292q30 0 51.5 -22t21.5 -51z" />
    <glyph glyph-name="uniECE6" unicode="&#xece6;" 
d="M293 183v-110q0 -23 -16 -39t-39 -16h-183q-23 0 -39 16t-16 39v110q0 23 16 39t39 16h183q23 0 39 -16t16 -39zM293 475v-109q0 -23 -16 -39t-39 -16h-183q-23 0 -39 16t-16 39v109q0 23 16 39t39 16h183q23 0 39 -16t16 -39zM1024 183v-110q0 -23 -16 -39t-39 -16h-548
q-23 0 -39 16t-16 39v110q0 23 16 39t39 16h548q23 0 39 -16t16 -39zM293 768v-110q0 -23 -16 -39t-39 -16h-183q-23 0 -39 16t-16 39v110q0 23 16 39t39 16h183q23 0 39 -16t16 -39zM1024 475v-109q0 -23 -16 -39t-39 -16h-548q-23 0 -39 16t-16 39v109q0 23 16 39t39 16
h548q23 0 39 -16t16 -39zM1024 768v-110q0 -23 -16 -39t-39 -16h-548q-23 0 -39 16t-16 39v110q0 23 16 39t39 16h548q23 0 39 -16t16 -39z" />
    <glyph glyph-name="uniECE7" unicode="&#xece7;" 
d="M183 567q0 -15 -11 -26t-26 -11t-25.5 11t-10.5 26t10.5 25.5t25.5 10.5t26 -10.5t11 -25.5zM274 274v366q0 15 -10.5 26t-25.5 11h-165q-15 0 -25.5 -11t-10.5 -26v-366q0 -15 10.5 -25.5t25.5 -10.5h165q15 0 25.5 10.5t10.5 25.5zM919 359q32 -34 32 -85
q-1 -44 -33 -76.5t-77 -32.5h-158q2 -8 4.5 -14t6.5 -13t5 -10q11 -21 16 -32.5t10.5 -33.5t5.5 -44v-22q0 -9 -2.5 -26t-7 -28.5t-14 -25.5t-23 -23t-34 -15t-47.5 -6q-14 0 -25 11q-12 11 -20 28.5t-11 30t-7 34.5q-5 24 -7.5 34.5t-10 27.5t-18.5 28q-18 19 -57 68
q-28 37 -58 69.5t-43 33.5q-15 1 -25 11.5t-10 25.5v366q0 15 10.5 25.5t25.5 11.5q20 0 91 25q44 15 68.5 22.5t69 16.5t82.5 9h74q76 -1 112 -45q33 -39 28 -103q23 -21 31 -54q10 -35 0 -67q26 -35 25 -78q0 -18 -9 -43v-1z" />
    <glyph glyph-name="uniECE8" unicode="&#xece8;" 
d="M219 640q0 15 -10.5 26t-25.5 10.5t-26 -11t-11 -25.5t11 -25.5t26 -11t25.5 10.5t10.5 26zM878 311q0 20 -12.5 46t-30.5 27q8 10 14 27.5t6 31.5q0 39 -31 68q11 18 11 39t-10 42t-27 30q2 17 2 32q0 49 -28 72.5t-77 23.5h-73q-75 0 -196 -42q-3 -1 -16.5 -6t-20 -7
t-20 -6.5t-22 -6.5t-19 -3.5t-17.5 -1.5h-19v-366h19q9 0 20 -5t23 -15.5t22 -20.5t22 -25l20 -24q8 -9 18.5 -23.5t13.5 -17.5q31 -39 44 -52q23 -25 33.5 -62.5t17.5 -71.5t22 -49q55 0 73 27t18 83q0 34 -27.5 92t-27.5 91h201q29 0 51.5 22t22.5 51zM951 310
q0 -59 -43.5 -102t-103.5 -43h-100q27 -57 27 -110q0 -68 -20 -106q-20 -40 -58 -58.5t-86 -18.5q-29 0 -52 21q-19 19 -30.5 47t-14.5 51.5t-10 48.5t-18 37q-27 28 -61 72q-58 75 -78 89h-157q-30 0 -51.5 21.5t-21.5 51.5v366q0 30 21.5 51.5t51.5 21.5h165q12 0 79 23
q73 25 127 37.5t114 12.5h64q80 0 129.5 -45t49.5 -124v-3q34 -44 34 -101q0 -13 -2 -25q22 -38 22 -82q0 -21 -5 -40q28 -42 28 -93z" />
    <glyph glyph-name="uniECEB" unicode="&#xeceb;" 
d="M366 677h292v73h-292v-73zM165 677v-732h-37q-53 0 -90.5 38t-37.5 90v476q0 52 37.5 89.5t90.5 38.5h37zM805 677v-732h-586v732h74v91q0 23 16 39t38 16h330q22 0 38 -16t16 -39v-91h74zM1024 549v-476q0 -52 -37.5 -90t-90.5 -38h-37v732h37q53 0 90.5 -38t37.5 -90z
" />
    <glyph glyph-name="uniECEE" unicode="&#xecee;" 
d="M329 110v109q0 8 -5 13.5t-13 5.5h-183q-8 0 -13 -5.5t-5 -13.5v-109q0 -8 5 -13.5t13 -5.5h183q8 0 13 5.5t5 13.5zM329 329v110q0 8 -5 13t-13 5h-183q-8 0 -13 -5t-5 -13v-110q0 -8 5 -13t13 -5h183q8 0 13 5t5 13zM622 110v109q0 8 -5.5 13.5t-13.5 5.5h-182
q-8 0 -13.5 -5.5t-5.5 -13.5v-109q0 -8 5.5 -13.5t13.5 -5.5h182q8 0 13.5 5.5t5.5 13.5zM329 549v109q0 8 -5 13.5t-13 5.5h-183q-8 0 -13 -5.5t-5 -13.5v-109q0 -8 5 -13.5t13 -5.5h183q8 0 13 5.5t5 13.5zM622 329v110q0 8 -5.5 13t-13.5 5h-182q-8 0 -13.5 -5t-5.5 -13
v-110q0 -8 5.5 -13t13.5 -5h182q8 0 13.5 5t5.5 13zM914 110v109q0 8 -5 13.5t-13 5.5h-183q-8 0 -13 -5.5t-5 -13.5v-109q0 -8 5 -13.5t13 -5.5h183q8 0 13 5.5t5 13.5zM622 549v109q0 8 -5.5 13.5t-13.5 5.5h-182q-8 0 -13.5 -5.5t-5.5 -13.5v-109q0 -8 5.5 -13.5
t13.5 -5.5h182q8 0 13.5 5.5t5.5 13.5zM914 329v110q0 8 -5 13t-13 5h-183q-8 0 -13 -5t-5 -13v-110q0 -8 5 -13t13 -5h183q8 0 13 5t5 13zM914 549v109q0 8 -5 13.5t-13 5.5h-183q-8 0 -13 -5.5t-5 -13.5v-109q0 -8 5 -13.5t13 -5.5h183q8 0 13 5.5t5 13.5zM987 731v-621
q0 -38 -26.5 -65t-64.5 -27h-768q-38 0 -64.5 27t-26.5 65v621q0 38 26.5 65t64.5 27h768q38 0 64.5 -27t26.5 -65z" />
    <glyph glyph-name="uniECEF" unicode="&#xecef;" 
d="M549 91.5q0 14.5 -11 25.5t-26 11t-26 -11t-11 -26t11 -25.5t26 -10.5t26 11t11 25.5zM768 183v548q0 8 -5.5 13.5t-12.5 5.5h-476q-7 0 -12.5 -5.5t-5.5 -13.5v-548q0 -8 5.5 -13t12.5 -5h476q7 0 12.5 5t5.5 13zM841 731v-621q0 -38 -27 -65t-64 -27h-476q-37 0 -64 27
t-27 65v621q0 38 27 65t64 27h476q37 0 64 -27t27 -65z" />
    <glyph glyph-name="uniECF0" unicode="&#xecf0;" 
d="M329 640q0 30 -21.5 51.5t-51.5 21.5t-51.5 -21.5t-21.5 -51.5t21.5 -51.5t51.5 -21.5t51.5 21.5t21.5 51.5zM939 311q0 -30 -21 -52l-281 -281q-22 -21 -52 -21t-51 21l-409 409q-22 22 -37 58.5t-15 66.5v238q0 29 22 51t51 22h238q30 0 66.5 -15t58.5 -37l409 -408
q21 -22 21 -52z" />
    <glyph glyph-name="uniECF5" unicode="&#xecf5;" 
d="M914 18q0 -36 -35 -64.5t-93.5 -46t-128.5 -26.5t-145 -9t-145 9t-128.5 26.5t-93.5 46t-35 64.5q0 28 19 50.5t52 38t67 25.5t75 17q15 3 27.5 -6t14.5 -24q3 -14 -6 -27t-23 -15q-34 -6 -61 -13.5t-43.5 -14.5t-28 -13.5t-16 -11t-4.5 -6.5q2 -7 15.5 -15.5t41.5 -18.5
t65 -18.5t91.5 -14.5t115.5 -6t115.5 6t91.5 14.5t65 18.5t42 19t15 16q0 2 -4.5 6t-16 11t-27.5 13.5t-43.5 14t-60.5 13.5q-15 2 -24 15t-6 27q2 15 14.5 24t27.5 6q41 -7 75 -17t67.5 -25.5t52 -38t18.5 -50.5zM695 530v-219q0 -15 -11 -26t-26 -11h-36v-219
q0 -15 -11 -26t-26 -11h-146q-15 0 -26 11t-11 26v219h-36q-15 0 -26 11t-11 26v219q0 31 21.5 52t51.5 21h220q30 0 51.5 -21t21.5 -52zM640 750q0 -53 -37.5 -90.5t-90.5 -37.5t-90.5 37.5t-37.5 90.5t37.5 90.5t90.5 37.5t90.5 -37.5t37.5 -90.5z" />
    <glyph glyph-name="uniECFD" unicode="&#xecfd;" 
d="M987 526q0 -12 -15 -27l-207 -202l49 -286q1 -4 1 -12q0 -12 -6 -20t-18 -8q-10 0 -22 7l-257 135l-257 -135q-12 -7 -22 -7q-12 0 -18 8t-6 20q0 4 1 12l49 286l-208 202q-14 15 -14 27q0 21 32 27l286 41l129 260q11 24 28 24t28 -24l129 -260l287 -41q32 -6 32 -27h-1
z" />
    <glyph glyph-name="uniECFF" unicode="&#xecff;" 
d="M714 349l147 143l-241 35l-17 35l-91 184v-551l34 -17l181 -96l-34 203l-7 37zM973 499l-208 -202l49 -286q3 -19 -3 -29.5t-20 -10.5q-9 0 -22 7l-257 135l-257 -135q-13 -7 -22 -7q-14 0 -20 10.5t-3 29.5l49 286l-208 202q-18 18 -13 34t31 20l286 41l129 260
q11 24 28 24q16 0 28 -24l129 -260l286 -41q26 -4 31 -20t-13 -34z" />
    <glyph glyph-name="uniED00" unicode="&#xed00;" 
d="M686 322l175 170l-241 35l-108 219l-108 -219l-241 -35l175 -170l-42 -240l216 113l215 -113zM987 526q0 -12 -15 -27l-207 -202l49 -286q1 -4 1 -12q0 -28 -24 -28q-10 0 -22 7l-257 135l-257 -135q-12 -7 -22 -7q-12 0 -18 8t-6 20q0 4 1 12l49 285l-208 203
q-14 15 -14 27q0 21 32 26l286 42l129 260q11 24 28 24t28 -24l129 -260l287 -42q32 -5 32 -26h-1z" />
    <glyph glyph-name="uniED03" unicode="&#xed03;" 
d="M779 815q11 11 18.5 7.5t7.5 -17.5v-842q0 -14 -7.5 -17.5t-18.5 7.5l-406 405q-5 5 -7 11v-387q0 -15 -11 -26t-26 -11h-73q-15 0 -26 11t-11 26v804q0 15 11 26t26 11h73q15 0 26 -11t11 -26v-387q2 6 7 11z" />
    </font>
</defs>
</svg>
